<svg width="1212" height="407" viewBox="0 0 1212 407" fill="none" xmlns="http://www.w3.org/2000/svg">
<rect width="1212" height="407" fill="#FFEDD4"/>
<mask id="path-2-outside-1_18_90" maskUnits="userSpaceOnUse" x="86" y="85" width="1041" height="237" fill="black">
<rect fill="white" x="86" y="85" width="1041" height="237"/>
<path d="M135.616 318.648C121.451 318.648 110.016 313.869 101.312 304.312C92.4373 294.925 88 283.149 88 268.984C88 257.549 91.4987 246.627 98.496 236.216C105.835 224.952 115.307 219.32 126.912 219.32C134.763 219.32 144.576 224.44 156.352 234.68C168.299 244.749 175.552 249.784 178.112 249.784C181.355 249.784 184.256 248.248 186.816 245.176V121.784L227.776 88.2479C232.555 96.9519 237.419 101.304 242.368 101.304C245.781 101.304 251.84 97.9759 260.544 91.3199L264.128 96.1839C248.939 109.155 238.357 115.64 232.384 115.64C232.384 115.64 231.787 115.555 230.592 115.384C229.397 115.213 227.605 114.957 225.216 114.616V165.048H246.72L225.216 182.2V304.312L227.776 307.896L214.976 318.648L208.064 309.944L219.328 300.984V184.248H206.272V239.032C203.029 241.763 199.787 244.408 196.544 246.968C193.472 249.528 190.315 252.173 187.072 254.904C179.051 260.536 171.456 263.352 164.288 263.352C158.656 263.352 150.379 259.427 139.456 251.576C128.875 243.725 121.707 239.8 117.952 239.8C110.784 239.8 104.896 243.384 100.288 250.552C96.5333 256.355 94.656 263.267 94.656 271.288C94.656 282.893 98.6667 292.707 106.688 300.728C114.539 308.92 124.267 313.016 135.872 313.016C139.115 313.016 142.357 312.675 145.6 311.992V317.368C141.845 318.221 138.517 318.648 135.616 318.648ZM219.328 165.048V113.08C216.427 111.715 214.037 110.179 212.16 108.472L206.272 113.08V165.048H219.328ZM156.608 222.904V182.712C154.731 181.176 152.853 180.408 150.976 180.408C148.075 180.408 145.6 181.603 143.552 183.992C141.675 186.211 140.736 188.856 140.736 191.928C140.736 193.464 141.248 195.512 142.272 198.072L135.872 200.632C134.165 195.341 133.312 190.307 133.312 185.528C133.312 170.851 141.077 163.512 156.608 163.512V136.12L176.064 120.504L179.904 125.112L176.064 128.184V214.712L156.608 230.584L153.024 225.72L156.608 222.904ZM117.952 118.2C117.952 111.203 120.683 104.461 126.144 97.9759C131.605 91.4906 137.92 88.2479 145.088 88.2479C149.525 88.2479 155.84 89.6133 164.032 92.3439C173.76 95.5866 178.965 97.2079 179.648 97.2079C183.915 97.2079 188.693 95.0746 193.984 90.8079L197.568 94.9039C192.789 98.6586 189.205 101.56 186.816 103.608C184.427 105.485 183.061 106.595 182.72 106.936C176.235 111.715 170.517 114.104 165.568 114.104C162.325 114.104 157.291 112.909 150.464 110.52C143.808 108.131 139.115 106.936 136.384 106.936C132.971 106.936 130.155 108.216 127.936 110.776C125.888 113.165 124.864 116.067 124.864 119.48C124.864 126.477 128.192 132.621 134.848 137.912L130.496 142.008C122.133 134.157 117.952 126.221 117.952 118.2Z"/>
<path d="M272.644 185.528L265.732 179.64L257.796 186.552L254.212 181.944L277.252 161.72L291.588 174.776L299.524 168.376L303.364 172.728L290.564 184.248V226.744C290.564 234.765 292.527 240.227 296.452 243.128L303.108 237.24L306.948 241.848L283.908 261.816C276.399 256.355 272.644 247.309 272.644 234.68V185.528ZM266.244 134.84L260.868 139.448L257.028 134.84L277.764 116.92L292.1 129.72L297.22 125.368L301.06 129.976L280.836 147.896L266.244 134.84Z"/>
<path d="M315.868 250.552L329.436 239.288V197.304C329.436 188.6 327.9 182.712 324.828 179.64L317.148 186.296L313.308 181.688L336.86 161.72C341.639 165.475 344.711 169.741 346.076 174.52C346.929 177.933 347.356 183.224 347.356 190.392L380.38 161.72L394.46 174.52L402.396 167.864L406.236 172.472L392.924 183.736V226.232C392.924 234.765 394.46 240.568 397.532 243.64L404.444 237.752L408.284 242.36L385.5 261.816C378.503 255.672 375.004 246.456 375.004 234.168V184.76L368.86 179.64L347.356 198.328V239.544L352.732 244.92L359.388 239.544L363.228 244.152L342.492 261.816L328.156 248.248L319.708 255.16L315.868 250.552Z"/>
<path d="M428.644 185.528L421.732 179.64L413.796 186.552L410.212 181.944L433.252 161.72L447.588 174.776L455.524 168.376L459.364 172.728L446.564 184.248V226.744C446.564 234.765 448.527 240.227 452.452 243.128L459.108 237.24L462.948 241.848L439.908 261.816C432.399 256.355 428.644 247.309 428.644 234.68V185.528ZM422.244 134.84L416.868 139.448L413.028 134.84L433.764 116.92L448.1 129.72L453.22 125.368L457.06 129.976L436.836 147.896L422.244 134.84Z"/>
<path d="M504.892 216.248H478.524V184.76H472.124V178.872C486.119 178.872 498.748 173.24 510.012 161.976C518.033 166.925 524.689 169.4 529.98 169.4C535.1 169.4 539.879 166.84 544.316 161.72L549.18 165.304L519.228 206.264H545.084V239.032H551.74V244.92C536.039 244.92 522.641 250.467 511.548 261.56C504.551 256.44 498.151 253.88 492.348 253.88C486.887 253.88 482.279 256.525 478.524 261.816L473.916 258.744L504.892 216.248ZM511.804 206.264L533.308 177.08C527.847 181.347 522.044 183.48 515.9 183.48C510.439 183.48 505.319 181.603 500.54 177.848L496.444 180.408V206.264H511.804ZM489.276 246.968C497.639 242.36 504.38 240.056 509.5 240.056C513.425 240.056 518.119 241.592 523.58 244.664L526.652 243.384V216.248H512.06L489.276 246.968Z"/>
<path d="M810.394 185.528L803.482 179.64L795.546 186.552L791.962 181.944L815.002 161.72L829.338 174.776L837.274 168.376L841.114 172.728L828.314 184.248V226.744C828.314 234.765 830.277 240.227 834.202 243.128L840.858 237.24L844.698 241.848L821.658 261.816C814.149 256.355 810.394 247.309 810.394 234.68V185.528ZM803.994 134.84L798.618 139.448L794.778 134.84L815.514 116.92L829.85 129.72L834.97 125.368L838.81 129.976L818.586 147.896L803.994 134.84Z"/>
<path d="M886.642 216.248H860.274V184.76H853.874V178.872C867.869 178.872 880.498 173.24 891.762 161.976C899.783 166.925 906.439 169.4 911.73 169.4C916.85 169.4 921.629 166.84 926.066 161.72L930.93 165.304L900.978 206.264H926.834V239.032H933.49V244.92C917.789 244.92 904.391 250.467 893.298 261.56C886.301 256.44 879.901 253.88 874.098 253.88C868.637 253.88 864.029 256.525 860.274 261.816L855.666 258.744L886.642 216.248ZM893.554 206.264L915.058 177.08C909.597 181.347 903.794 183.48 897.65 183.48C892.189 183.48 887.069 181.603 882.29 177.848L878.194 180.408V206.264H893.554ZM871.026 246.968C879.389 242.36 886.13 240.056 891.25 240.056C895.175 240.056 899.869 241.592 905.33 244.664L908.402 243.384V216.248H893.81L871.026 246.968Z"/>
<path d="M1033.69 173.24L1020.12 184.504V226.488C1020.12 235.363 1021.57 241.251 1024.47 244.152L1032.41 237.496L1036.25 242.104L1012.44 261.816C1007.83 258.061 1004.93 253.88 1003.74 249.272C1002.71 246.029 1002.2 240.824 1002.2 233.656L969.176 261.816L955.096 249.272L947.16 255.928L943.32 251.32L956.632 240.056V197.56C956.632 189.368 955.096 183.565 952.024 180.152L945.112 186.04L941.272 181.688L964.056 161.72C971.053 168.205 974.552 177.592 974.552 189.88V239.032L980.696 244.152L1002.2 225.464V184.248L996.824 178.872L990.168 184.248L986.328 179.896L1007.06 161.72L1021.14 175.544L1029.85 168.632L1033.69 173.24Z"/>
<path d="M1077.64 216.248H1051.27V184.76H1044.87V178.872C1058.87 178.872 1071.5 173.24 1082.76 161.976C1090.78 166.925 1097.44 169.4 1102.73 169.4C1107.85 169.4 1112.63 166.84 1117.07 161.72L1121.93 165.304L1091.98 206.264H1117.83V239.032H1124.49V244.92C1108.79 244.92 1095.39 250.467 1084.3 261.56C1077.3 256.44 1070.9 253.88 1065.1 253.88C1059.64 253.88 1055.03 256.525 1051.27 261.816L1046.67 258.744L1077.64 216.248ZM1084.55 206.264L1106.06 177.08C1100.6 181.347 1094.79 183.48 1088.65 183.48C1083.19 183.48 1078.07 181.603 1073.29 177.848L1069.19 180.408V206.264H1084.55ZM1062.03 246.968C1070.39 242.36 1077.13 240.056 1082.25 240.056C1086.18 240.056 1090.87 241.592 1096.33 244.664L1099.4 243.384V216.248H1084.81L1062.03 246.968Z"/>
<path d="M641.202 279.488C641.202 268.053 645.213 258.325 653.234 250.304C660.573 242.965 670.045 237.845 681.65 234.944V182.464C679.773 180.587 677.81 179.648 675.762 179.648C668.935 179.648 665.522 183.659 665.522 191.68C665.522 193.216 666.034 195.264 667.058 197.824L661.17 200.128C659.122 194.325 658.098 189.035 658.098 184.256C658.098 170.261 665.949 163.264 681.65 163.264V131.008C681.65 117.867 677.042 111.296 667.826 111.296C662.365 111.296 657.757 113.685 654.002 118.464C650.589 122.901 648.541 127.936 647.858 133.568L642.482 132.288C643.677 121.536 646.493 112.149 650.93 104.128C656.733 93.376 664.157 88 673.202 88C678.322 88 683.015 89.6213 687.282 92.864C696.498 99.8613 701.106 111.893 701.106 128.96L712.626 120V91.072H718.77V115.904L757.426 88.256L778.418 108.992L787.378 102.848L790.962 107.968L774.322 120L744.511 243.252L742.834 249.52C742.834 249.52 729.437 250.304 714.93 265.152C706.397 258.155 695.901 254.656 683.442 254.656C674.567 254.656 666.717 257.045 659.89 261.824C652.381 267.285 648.626 274.283 648.626 282.816C648.626 290.496 651.613 297.323 657.586 303.296C663.73 309.44 670.642 312.512 678.322 312.512V318.4C667.229 318.4 658.269 314.56 651.442 306.88C644.615 299.541 641.202 290.411 641.202 279.488ZM712.626 238.016V127.936L701.106 136.384V234.688C702.13 234.859 703.581 235.285 705.458 235.968C707.335 236.48 709.725 237.163 712.626 238.016ZM718.77 240.064L729.511 243.752L747.009 156.752C758.511 155.252 742.151 157.888 736.69 157.888C730.546 157.888 724.573 156.608 718.77 154.048V240.064ZM736.69 151.744C743.005 151.744 752.511 149.752 749.011 150.252L755.378 118.208L743.346 105.664L718.77 123.584V147.392C724.061 150.293 730.034 151.744 736.69 151.744Z"/>
</mask>
<path d="M135.616 318.648C121.451 318.648 110.016 313.869 101.312 304.312C92.4373 294.925 88 283.149 88 268.984C88 257.549 91.4987 246.627 98.496 236.216C105.835 224.952 115.307 219.32 126.912 219.32C134.763 219.32 144.576 224.44 156.352 234.68C168.299 244.749 175.552 249.784 178.112 249.784C181.355 249.784 184.256 248.248 186.816 245.176V121.784L227.776 88.2479C232.555 96.9519 237.419 101.304 242.368 101.304C245.781 101.304 251.84 97.9759 260.544 91.3199L264.128 96.1839C248.939 109.155 238.357 115.64 232.384 115.64C232.384 115.64 231.787 115.555 230.592 115.384C229.397 115.213 227.605 114.957 225.216 114.616V165.048H246.72L225.216 182.2V304.312L227.776 307.896L214.976 318.648L208.064 309.944L219.328 300.984V184.248H206.272V239.032C203.029 241.763 199.787 244.408 196.544 246.968C193.472 249.528 190.315 252.173 187.072 254.904C179.051 260.536 171.456 263.352 164.288 263.352C158.656 263.352 150.379 259.427 139.456 251.576C128.875 243.725 121.707 239.8 117.952 239.8C110.784 239.8 104.896 243.384 100.288 250.552C96.5333 256.355 94.656 263.267 94.656 271.288C94.656 282.893 98.6667 292.707 106.688 300.728C114.539 308.92 124.267 313.016 135.872 313.016C139.115 313.016 142.357 312.675 145.6 311.992V317.368C141.845 318.221 138.517 318.648 135.616 318.648ZM219.328 165.048V113.08C216.427 111.715 214.037 110.179 212.16 108.472L206.272 113.08V165.048H219.328ZM156.608 222.904V182.712C154.731 181.176 152.853 180.408 150.976 180.408C148.075 180.408 145.6 181.603 143.552 183.992C141.675 186.211 140.736 188.856 140.736 191.928C140.736 193.464 141.248 195.512 142.272 198.072L135.872 200.632C134.165 195.341 133.312 190.307 133.312 185.528C133.312 170.851 141.077 163.512 156.608 163.512V136.12L176.064 120.504L179.904 125.112L176.064 128.184V214.712L156.608 230.584L153.024 225.72L156.608 222.904ZM117.952 118.2C117.952 111.203 120.683 104.461 126.144 97.9759C131.605 91.4906 137.92 88.2479 145.088 88.2479C149.525 88.2479 155.84 89.6133 164.032 92.3439C173.76 95.5866 178.965 97.2079 179.648 97.2079C183.915 97.2079 188.693 95.0746 193.984 90.8079L197.568 94.9039C192.789 98.6586 189.205 101.56 186.816 103.608C184.427 105.485 183.061 106.595 182.72 106.936C176.235 111.715 170.517 114.104 165.568 114.104C162.325 114.104 157.291 112.909 150.464 110.52C143.808 108.131 139.115 106.936 136.384 106.936C132.971 106.936 130.155 108.216 127.936 110.776C125.888 113.165 124.864 116.067 124.864 119.48C124.864 126.477 128.192 132.621 134.848 137.912L130.496 142.008C122.133 134.157 117.952 126.221 117.952 118.2Z" fill="#292524"/>
<path d="M272.644 185.528L265.732 179.64L257.796 186.552L254.212 181.944L277.252 161.72L291.588 174.776L299.524 168.376L303.364 172.728L290.564 184.248V226.744C290.564 234.765 292.527 240.227 296.452 243.128L303.108 237.24L306.948 241.848L283.908 261.816C276.399 256.355 272.644 247.309 272.644 234.68V185.528ZM266.244 134.84L260.868 139.448L257.028 134.84L277.764 116.92L292.1 129.72L297.22 125.368L301.06 129.976L280.836 147.896L266.244 134.84Z" fill="#292524"/>
<path d="M315.868 250.552L329.436 239.288V197.304C329.436 188.6 327.9 182.712 324.828 179.64L317.148 186.296L313.308 181.688L336.86 161.72C341.639 165.475 344.711 169.741 346.076 174.52C346.929 177.933 347.356 183.224 347.356 190.392L380.38 161.72L394.46 174.52L402.396 167.864L406.236 172.472L392.924 183.736V226.232C392.924 234.765 394.46 240.568 397.532 243.64L404.444 237.752L408.284 242.36L385.5 261.816C378.503 255.672 375.004 246.456 375.004 234.168V184.76L368.86 179.64L347.356 198.328V239.544L352.732 244.92L359.388 239.544L363.228 244.152L342.492 261.816L328.156 248.248L319.708 255.16L315.868 250.552Z" fill="#292524"/>
<path d="M428.644 185.528L421.732 179.64L413.796 186.552L410.212 181.944L433.252 161.72L447.588 174.776L455.524 168.376L459.364 172.728L446.564 184.248V226.744C446.564 234.765 448.527 240.227 452.452 243.128L459.108 237.24L462.948 241.848L439.908 261.816C432.399 256.355 428.644 247.309 428.644 234.68V185.528ZM422.244 134.84L416.868 139.448L413.028 134.84L433.764 116.92L448.1 129.72L453.22 125.368L457.06 129.976L436.836 147.896L422.244 134.84Z" fill="#292524"/>
<path d="M504.892 216.248H478.524V184.76H472.124V178.872C486.119 178.872 498.748 173.24 510.012 161.976C518.033 166.925 524.689 169.4 529.98 169.4C535.1 169.4 539.879 166.84 544.316 161.72L549.18 165.304L519.228 206.264H545.084V239.032H551.74V244.92C536.039 244.92 522.641 250.467 511.548 261.56C504.551 256.44 498.151 253.88 492.348 253.88C486.887 253.88 482.279 256.525 478.524 261.816L473.916 258.744L504.892 216.248ZM511.804 206.264L533.308 177.08C527.847 181.347 522.044 183.48 515.9 183.48C510.439 183.48 505.319 181.603 500.54 177.848L496.444 180.408V206.264H511.804ZM489.276 246.968C497.639 242.36 504.38 240.056 509.5 240.056C513.425 240.056 518.119 241.592 523.58 244.664L526.652 243.384V216.248H512.06L489.276 246.968Z" fill="#292524"/>
<path d="M810.394 185.528L803.482 179.64L795.546 186.552L791.962 181.944L815.002 161.72L829.338 174.776L837.274 168.376L841.114 172.728L828.314 184.248V226.744C828.314 234.765 830.277 240.227 834.202 243.128L840.858 237.24L844.698 241.848L821.658 261.816C814.149 256.355 810.394 247.309 810.394 234.68V185.528ZM803.994 134.84L798.618 139.448L794.778 134.84L815.514 116.92L829.85 129.72L834.97 125.368L838.81 129.976L818.586 147.896L803.994 134.84Z" fill="#292524"/>
<path d="M886.642 216.248H860.274V184.76H853.874V178.872C867.869 178.872 880.498 173.24 891.762 161.976C899.783 166.925 906.439 169.4 911.73 169.4C916.85 169.4 921.629 166.84 926.066 161.72L930.93 165.304L900.978 206.264H926.834V239.032H933.49V244.92C917.789 244.92 904.391 250.467 893.298 261.56C886.301 256.44 879.901 253.88 874.098 253.88C868.637 253.88 864.029 256.525 860.274 261.816L855.666 258.744L886.642 216.248ZM893.554 206.264L915.058 177.08C909.597 181.347 903.794 183.48 897.65 183.48C892.189 183.48 887.069 181.603 882.29 177.848L878.194 180.408V206.264H893.554ZM871.026 246.968C879.389 242.36 886.13 240.056 891.25 240.056C895.175 240.056 899.869 241.592 905.33 244.664L908.402 243.384V216.248H893.81L871.026 246.968Z" fill="#292524"/>
<path d="M1033.69 173.24L1020.12 184.504V226.488C1020.12 235.363 1021.57 241.251 1024.47 244.152L1032.41 237.496L1036.25 242.104L1012.44 261.816C1007.83 258.061 1004.93 253.88 1003.74 249.272C1002.71 246.029 1002.2 240.824 1002.2 233.656L969.176 261.816L955.096 249.272L947.16 255.928L943.32 251.32L956.632 240.056V197.56C956.632 189.368 955.096 183.565 952.024 180.152L945.112 186.04L941.272 181.688L964.056 161.72C971.053 168.205 974.552 177.592 974.552 189.88V239.032L980.696 244.152L1002.2 225.464V184.248L996.824 178.872L990.168 184.248L986.328 179.896L1007.06 161.72L1021.14 175.544L1029.85 168.632L1033.69 173.24Z" fill="#292524"/>
<path d="M1077.64 216.248H1051.27V184.76H1044.87V178.872C1058.87 178.872 1071.5 173.24 1082.76 161.976C1090.78 166.925 1097.44 169.4 1102.73 169.4C1107.85 169.4 1112.63 166.84 1117.07 161.72L1121.93 165.304L1091.98 206.264H1117.83V239.032H1124.49V244.92C1108.79 244.92 1095.39 250.467 1084.3 261.56C1077.3 256.44 1070.9 253.88 1065.1 253.88C1059.64 253.88 1055.03 256.525 1051.27 261.816L1046.67 258.744L1077.64 216.248ZM1084.55 206.264L1106.06 177.08C1100.6 181.347 1094.79 183.48 1088.65 183.48C1083.19 183.48 1078.07 181.603 1073.29 177.848L1069.19 180.408V206.264H1084.55ZM1062.03 246.968C1070.39 242.36 1077.13 240.056 1082.25 240.056C1086.18 240.056 1090.87 241.592 1096.33 244.664L1099.4 243.384V216.248H1084.81L1062.03 246.968Z" fill="#292524"/>
<path d="M641.202 279.488C641.202 268.053 645.213 258.325 653.234 250.304C660.573 242.965 670.045 237.845 681.65 234.944V182.464C679.773 180.587 677.81 179.648 675.762 179.648C668.935 179.648 665.522 183.659 665.522 191.68C665.522 193.216 666.034 195.264 667.058 197.824L661.17 200.128C659.122 194.325 658.098 189.035 658.098 184.256C658.098 170.261 665.949 163.264 681.65 163.264V131.008C681.65 117.867 677.042 111.296 667.826 111.296C662.365 111.296 657.757 113.685 654.002 118.464C650.589 122.901 648.541 127.936 647.858 133.568L642.482 132.288C643.677 121.536 646.493 112.149 650.93 104.128C656.733 93.376 664.157 88 673.202 88C678.322 88 683.015 89.6213 687.282 92.864C696.498 99.8613 701.106 111.893 701.106 128.96L712.626 120V91.072H718.77V115.904L757.426 88.256L778.418 108.992L787.378 102.848L790.962 107.968L774.322 120L744.511 243.252L742.834 249.52C742.834 249.52 729.437 250.304 714.93 265.152C706.397 258.155 695.901 254.656 683.442 254.656C674.567 254.656 666.717 257.045 659.89 261.824C652.381 267.285 648.626 274.283 648.626 282.816C648.626 290.496 651.613 297.323 657.586 303.296C663.73 309.44 670.642 312.512 678.322 312.512V318.4C667.229 318.4 658.269 314.56 651.442 306.88C644.615 299.541 641.202 290.411 641.202 279.488ZM712.626 238.016V127.936L701.106 136.384V234.688C702.13 234.859 703.581 235.285 705.458 235.968C707.335 236.48 709.725 237.163 712.626 238.016ZM718.77 240.064L729.511 243.752L747.009 156.752C758.511 155.252 742.151 157.888 736.69 157.888C730.546 157.888 724.573 156.608 718.77 154.048V240.064ZM736.69 151.744C743.005 151.744 752.511 149.752 749.011 150.252L755.378 118.208L743.346 105.664L718.77 123.584V147.392C724.061 150.293 730.034 151.744 736.69 151.744Z" fill="#292524"/>
<path d="M135.616 318.648C121.451 318.648 110.016 313.869 101.312 304.312C92.4373 294.925 88 283.149 88 268.984C88 257.549 91.4987 246.627 98.496 236.216C105.835 224.952 115.307 219.32 126.912 219.32C134.763 219.32 144.576 224.44 156.352 234.68C168.299 244.749 175.552 249.784 178.112 249.784C181.355 249.784 184.256 248.248 186.816 245.176V121.784L227.776 88.2479C232.555 96.9519 237.419 101.304 242.368 101.304C245.781 101.304 251.84 97.9759 260.544 91.3199L264.128 96.1839C248.939 109.155 238.357 115.64 232.384 115.64C232.384 115.64 231.787 115.555 230.592 115.384C229.397 115.213 227.605 114.957 225.216 114.616V165.048H246.72L225.216 182.2V304.312L227.776 307.896L214.976 318.648L208.064 309.944L219.328 300.984V184.248H206.272V239.032C203.029 241.763 199.787 244.408 196.544 246.968C193.472 249.528 190.315 252.173 187.072 254.904C179.051 260.536 171.456 263.352 164.288 263.352C158.656 263.352 150.379 259.427 139.456 251.576C128.875 243.725 121.707 239.8 117.952 239.8C110.784 239.8 104.896 243.384 100.288 250.552C96.5333 256.355 94.656 263.267 94.656 271.288C94.656 282.893 98.6667 292.707 106.688 300.728C114.539 308.92 124.267 313.016 135.872 313.016C139.115 313.016 142.357 312.675 145.6 311.992V317.368C141.845 318.221 138.517 318.648 135.616 318.648ZM219.328 165.048V113.08C216.427 111.715 214.037 110.179 212.16 108.472L206.272 113.08V165.048H219.328ZM156.608 222.904V182.712C154.731 181.176 152.853 180.408 150.976 180.408C148.075 180.408 145.6 181.603 143.552 183.992C141.675 186.211 140.736 188.856 140.736 191.928C140.736 193.464 141.248 195.512 142.272 198.072L135.872 200.632C134.165 195.341 133.312 190.307 133.312 185.528C133.312 170.851 141.077 163.512 156.608 163.512V136.12L176.064 120.504L179.904 125.112L176.064 128.184V214.712L156.608 230.584L153.024 225.72L156.608 222.904ZM117.952 118.2C117.952 111.203 120.683 104.461 126.144 97.9759C131.605 91.4906 137.92 88.2479 145.088 88.2479C149.525 88.2479 155.84 89.6133 164.032 92.3439C173.76 95.5866 178.965 97.2079 179.648 97.2079C183.915 97.2079 188.693 95.0746 193.984 90.8079L197.568 94.9039C192.789 98.6586 189.205 101.56 186.816 103.608C184.427 105.485 183.061 106.595 182.72 106.936C176.235 111.715 170.517 114.104 165.568 114.104C162.325 114.104 157.291 112.909 150.464 110.52C143.808 108.131 139.115 106.936 136.384 106.936C132.971 106.936 130.155 108.216 127.936 110.776C125.888 113.165 124.864 116.067 124.864 119.48C124.864 126.477 128.192 132.621 134.848 137.912L130.496 142.008C122.133 134.157 117.952 126.221 117.952 118.2Z" stroke="#292524" stroke-width="4" mask="url(#path-2-outside-1_18_90)"/>
<path d="M272.644 185.528L265.732 179.64L257.796 186.552L254.212 181.944L277.252 161.72L291.588 174.776L299.524 168.376L303.364 172.728L290.564 184.248V226.744C290.564 234.765 292.527 240.227 296.452 243.128L303.108 237.24L306.948 241.848L283.908 261.816C276.399 256.355 272.644 247.309 272.644 234.68V185.528ZM266.244 134.84L260.868 139.448L257.028 134.84L277.764 116.92L292.1 129.72L297.22 125.368L301.06 129.976L280.836 147.896L266.244 134.84Z" stroke="#292524" stroke-width="4" mask="url(#path-2-outside-1_18_90)"/>
<path d="M315.868 250.552L329.436 239.288V197.304C329.436 188.6 327.9 182.712 324.828 179.64L317.148 186.296L313.308 181.688L336.86 161.72C341.639 165.475 344.711 169.741 346.076 174.52C346.929 177.933 347.356 183.224 347.356 190.392L380.38 161.72L394.46 174.52L402.396 167.864L406.236 172.472L392.924 183.736V226.232C392.924 234.765 394.46 240.568 397.532 243.64L404.444 237.752L408.284 242.36L385.5 261.816C378.503 255.672 375.004 246.456 375.004 234.168V184.76L368.86 179.64L347.356 198.328V239.544L352.732 244.92L359.388 239.544L363.228 244.152L342.492 261.816L328.156 248.248L319.708 255.16L315.868 250.552Z" stroke="#292524" stroke-width="4" mask="url(#path-2-outside-1_18_90)"/>
<path d="M428.644 185.528L421.732 179.64L413.796 186.552L410.212 181.944L433.252 161.72L447.588 174.776L455.524 168.376L459.364 172.728L446.564 184.248V226.744C446.564 234.765 448.527 240.227 452.452 243.128L459.108 237.24L462.948 241.848L439.908 261.816C432.399 256.355 428.644 247.309 428.644 234.68V185.528ZM422.244 134.84L416.868 139.448L413.028 134.84L433.764 116.92L448.1 129.72L453.22 125.368L457.06 129.976L436.836 147.896L422.244 134.84Z" stroke="#292524" stroke-width="4" mask="url(#path-2-outside-1_18_90)"/>
<path d="M504.892 216.248H478.524V184.76H472.124V178.872C486.119 178.872 498.748 173.24 510.012 161.976C518.033 166.925 524.689 169.4 529.98 169.4C535.1 169.4 539.879 166.84 544.316 161.72L549.18 165.304L519.228 206.264H545.084V239.032H551.74V244.92C536.039 244.92 522.641 250.467 511.548 261.56C504.551 256.44 498.151 253.88 492.348 253.88C486.887 253.88 482.279 256.525 478.524 261.816L473.916 258.744L504.892 216.248ZM511.804 206.264L533.308 177.08C527.847 181.347 522.044 183.48 515.9 183.48C510.439 183.48 505.319 181.603 500.54 177.848L496.444 180.408V206.264H511.804ZM489.276 246.968C497.639 242.36 504.38 240.056 509.5 240.056C513.425 240.056 518.119 241.592 523.58 244.664L526.652 243.384V216.248H512.06L489.276 246.968Z" stroke="#292524" stroke-width="4" mask="url(#path-2-outside-1_18_90)"/>
<path d="M810.394 185.528L803.482 179.64L795.546 186.552L791.962 181.944L815.002 161.72L829.338 174.776L837.274 168.376L841.114 172.728L828.314 184.248V226.744C828.314 234.765 830.277 240.227 834.202 243.128L840.858 237.24L844.698 241.848L821.658 261.816C814.149 256.355 810.394 247.309 810.394 234.68V185.528ZM803.994 134.84L798.618 139.448L794.778 134.84L815.514 116.92L829.85 129.72L834.97 125.368L838.81 129.976L818.586 147.896L803.994 134.84Z" stroke="#292524" stroke-width="4" mask="url(#path-2-outside-1_18_90)"/>
<path d="M886.642 216.248H860.274V184.76H853.874V178.872C867.869 178.872 880.498 173.24 891.762 161.976C899.783 166.925 906.439 169.4 911.73 169.4C916.85 169.4 921.629 166.84 926.066 161.72L930.93 165.304L900.978 206.264H926.834V239.032H933.49V244.92C917.789 244.92 904.391 250.467 893.298 261.56C886.301 256.44 879.901 253.88 874.098 253.88C868.637 253.88 864.029 256.525 860.274 261.816L855.666 258.744L886.642 216.248ZM893.554 206.264L915.058 177.08C909.597 181.347 903.794 183.48 897.65 183.48C892.189 183.48 887.069 181.603 882.29 177.848L878.194 180.408V206.264H893.554ZM871.026 246.968C879.389 242.36 886.13 240.056 891.25 240.056C895.175 240.056 899.869 241.592 905.33 244.664L908.402 243.384V216.248H893.81L871.026 246.968Z" stroke="#292524" stroke-width="4" mask="url(#path-2-outside-1_18_90)"/>
<path d="M1033.69 173.24L1020.12 184.504V226.488C1020.12 235.363 1021.57 241.251 1024.47 244.152L1032.41 237.496L1036.25 242.104L1012.44 261.816C1007.83 258.061 1004.93 253.88 1003.74 249.272C1002.71 246.029 1002.2 240.824 1002.2 233.656L969.176 261.816L955.096 249.272L947.16 255.928L943.32 251.32L956.632 240.056V197.56C956.632 189.368 955.096 183.565 952.024 180.152L945.112 186.04L941.272 181.688L964.056 161.72C971.053 168.205 974.552 177.592 974.552 189.88V239.032L980.696 244.152L1002.2 225.464V184.248L996.824 178.872L990.168 184.248L986.328 179.896L1007.06 161.72L1021.14 175.544L1029.85 168.632L1033.69 173.24Z" stroke="#292524" stroke-width="4" mask="url(#path-2-outside-1_18_90)"/>
<path d="M1077.64 216.248H1051.27V184.76H1044.87V178.872C1058.87 178.872 1071.5 173.24 1082.76 161.976C1090.78 166.925 1097.44 169.4 1102.73 169.4C1107.85 169.4 1112.63 166.84 1117.07 161.72L1121.93 165.304L1091.98 206.264H1117.83V239.032H1124.49V244.92C1108.79 244.92 1095.39 250.467 1084.3 261.56C1077.3 256.44 1070.9 253.88 1065.1 253.88C1059.64 253.88 1055.03 256.525 1051.27 261.816L1046.67 258.744L1077.64 216.248ZM1084.55 206.264L1106.06 177.08C1100.6 181.347 1094.79 183.48 1088.65 183.48C1083.19 183.48 1078.07 181.603 1073.29 177.848L1069.19 180.408V206.264H1084.55ZM1062.03 246.968C1070.39 242.36 1077.13 240.056 1082.25 240.056C1086.18 240.056 1090.87 241.592 1096.33 244.664L1099.4 243.384V216.248H1084.81L1062.03 246.968Z" stroke="#292524" stroke-width="4" mask="url(#path-2-outside-1_18_90)"/>
<path d="M641.202 279.488C641.202 268.053 645.213 258.325 653.234 250.304C660.573 242.965 670.045 237.845 681.65 234.944V182.464C679.773 180.587 677.81 179.648 675.762 179.648C668.935 179.648 665.522 183.659 665.522 191.68C665.522 193.216 666.034 195.264 667.058 197.824L661.17 200.128C659.122 194.325 658.098 189.035 658.098 184.256C658.098 170.261 665.949 163.264 681.65 163.264V131.008C681.65 117.867 677.042 111.296 667.826 111.296C662.365 111.296 657.757 113.685 654.002 118.464C650.589 122.901 648.541 127.936 647.858 133.568L642.482 132.288C643.677 121.536 646.493 112.149 650.93 104.128C656.733 93.376 664.157 88 673.202 88C678.322 88 683.015 89.6213 687.282 92.864C696.498 99.8613 701.106 111.893 701.106 128.96L712.626 120V91.072H718.77V115.904L757.426 88.256L778.418 108.992L787.378 102.848L790.962 107.968L774.322 120L744.511 243.252L742.834 249.52C742.834 249.52 729.437 250.304 714.93 265.152C706.397 258.155 695.901 254.656 683.442 254.656C674.567 254.656 666.717 257.045 659.89 261.824C652.381 267.285 648.626 274.283 648.626 282.816C648.626 290.496 651.613 297.323 657.586 303.296C663.73 309.44 670.642 312.512 678.322 312.512V318.4C667.229 318.4 658.269 314.56 651.442 306.88C644.615 299.541 641.202 290.411 641.202 279.488ZM712.626 238.016V127.936L701.106 136.384V234.688C702.13 234.859 703.581 235.285 705.458 235.968C707.335 236.48 709.725 237.163 712.626 238.016ZM718.77 240.064L729.511 243.752L747.009 156.752C758.511 155.252 742.151 157.888 736.69 157.888C730.546 157.888 724.573 156.608 718.77 154.048V240.064ZM736.69 151.744C743.005 151.744 752.511 149.752 749.011 150.252L755.378 118.208L743.346 105.664L718.77 123.584V147.392C724.061 150.293 730.034 151.744 736.69 151.744Z" stroke="#292524" stroke-width="4" mask="url(#path-2-outside-1_18_90)"/>
</svg>
