<svg width="1041" height="237" viewBox="0 0 1041 237" fill="none" xmlns="http://www.w3.org/2000/svg">
<mask id="path-1-outside-1_26_110" maskUnits="userSpaceOnUse" x="0" y="0" width="1041" height="237" fill="black">
<rect fill="white" width="1041" height="237"/>
<path d="M49.616 233.648C35.4507 233.648 24.016 228.869 15.312 219.312C6.43733 209.925 2 198.149 2 183.984C2 172.549 5.49867 161.627 12.496 151.216C19.8347 139.952 29.3067 134.32 40.912 134.32C48.7627 134.32 58.576 139.44 70.352 149.68C82.2987 159.749 89.552 164.784 92.112 164.784C95.3547 164.784 98.256 163.248 100.816 160.176V36.7839L141.776 3.24793C146.555 11.9519 151.419 16.3039 156.368 16.3039C159.781 16.3039 165.84 12.9759 174.544 6.31994L178.128 11.1839C162.939 24.1546 152.357 30.6399 146.384 30.6399C146.384 30.6399 145.787 30.5546 144.592 30.3839C143.397 30.2133 141.605 29.9573 139.216 29.6159V80.048H160.72L139.216 97.2V219.312L141.776 222.896L128.976 233.648L122.064 224.944L133.328 215.984V99.248H120.272V154.032C117.029 156.763 113.787 159.408 110.544 161.968C107.472 164.528 104.315 167.173 101.072 169.904C93.0507 175.536 85.456 178.352 78.288 178.352C72.656 178.352 64.3787 174.427 53.456 166.576C42.8747 158.725 35.7067 154.8 31.952 154.8C24.784 154.8 18.896 158.384 14.288 165.552C10.5333 171.355 8.656 178.267 8.656 186.288C8.656 197.893 12.6667 207.707 20.688 215.728C28.5387 223.92 38.2667 228.016 49.872 228.016C53.1147 228.016 56.3573 227.675 59.6 226.992V232.368C55.8453 233.221 52.5173 233.648 49.616 233.648ZM133.328 80.048V28.0799C130.427 26.7146 128.037 25.1786 126.16 23.4719L120.272 28.0799V80.048H133.328ZM70.608 137.904V97.712C68.7307 96.176 66.8533 95.408 64.976 95.408C62.0747 95.408 59.6 96.6027 57.552 98.992C55.6747 101.211 54.736 103.856 54.736 106.928C54.736 108.464 55.248 110.512 56.272 113.072L49.872 115.632C48.1653 110.341 47.312 105.307 47.312 100.528C47.312 85.8507 55.0773 78.512 70.608 78.512V51.1199L90.064 35.5039L93.904 40.1119L90.064 43.1839V129.712L70.608 145.584L67.024 140.72L70.608 137.904ZM31.952 33.1999C31.952 26.2026 34.6827 19.4613 40.144 12.9759C45.6053 6.4906 51.92 3.24793 59.088 3.24793C63.5253 3.24793 69.84 4.61327 78.032 7.34394C87.76 10.5866 92.9653 12.2079 93.648 12.2079C97.9147 12.2079 102.693 10.0746 107.984 5.80795L111.568 9.90394C106.789 13.6586 103.205 16.5599 100.816 18.6079C98.4267 20.4853 97.0613 21.5946 96.72 21.9359C90.2347 26.7146 84.5173 29.1039 79.568 29.1039C76.3253 29.1039 71.2907 27.9093 64.464 25.5199C57.808 23.1306 53.1147 21.9359 50.384 21.9359C46.9707 21.9359 44.1547 23.2159 41.936 25.7759C39.888 28.1653 38.864 31.0666 38.864 34.4799C38.864 41.4773 42.192 47.6213 48.848 52.9119L44.496 57.008C36.1333 49.1573 31.952 41.2213 31.952 33.1999Z"/>
<path d="M186.644 100.528L179.732 94.64L171.796 101.552L168.212 96.944L191.252 76.72L205.588 89.776L213.524 83.376L217.364 87.728L204.564 99.248V141.744C204.564 149.765 206.527 155.227 210.452 158.128L217.108 152.24L220.948 156.848L197.908 176.816C190.399 171.355 186.644 162.309 186.644 149.68V100.528ZM180.244 49.8399L174.868 54.4479L171.028 49.8399L191.764 31.9199L206.1 44.7199L211.22 40.3679L215.06 44.9759L194.836 62.8959L180.244 49.8399Z"/>
<path d="M229.868 165.552L243.436 154.288V112.304C243.436 103.6 241.9 97.712 238.828 94.64L231.148 101.296L227.308 96.688L250.86 76.72C255.639 80.4747 258.711 84.7413 260.076 89.52C260.929 92.9333 261.356 98.224 261.356 105.392L294.38 76.72L308.46 89.52L316.396 82.864L320.236 87.472L306.924 98.736V141.232C306.924 149.765 308.46 155.568 311.532 158.64L318.444 152.752L322.284 157.36L299.5 176.816C292.503 170.672 289.004 161.456 289.004 149.168V99.76L282.86 94.64L261.356 113.328V154.544L266.732 159.92L273.388 154.544L277.228 159.152L256.492 176.816L242.156 163.248L233.708 170.16L229.868 165.552Z"/>
<path d="M342.644 100.528L335.732 94.64L327.796 101.552L324.212 96.944L347.252 76.72L361.588 89.776L369.524 83.376L373.364 87.728L360.564 99.248V141.744C360.564 149.765 362.527 155.227 366.452 158.128L373.108 152.24L376.948 156.848L353.908 176.816C346.399 171.355 342.644 162.309 342.644 149.68V100.528ZM336.244 49.8399L330.868 54.4479L327.028 49.8399L347.764 31.9199L362.1 44.7199L367.22 40.3679L371.06 44.9759L350.836 62.8959L336.244 49.8399Z"/>
<path d="M418.892 131.248H392.524V99.76H386.124V93.872C400.119 93.872 412.748 88.24 424.012 76.976C432.033 81.9253 438.689 84.4 443.98 84.4C449.1 84.4 453.879 81.84 458.316 76.72L463.18 80.304L433.228 121.264H459.084V154.032H465.74V159.92C450.039 159.92 436.641 165.467 425.548 176.56C418.551 171.44 412.151 168.88 406.348 168.88C400.887 168.88 396.279 171.525 392.524 176.816L387.916 173.744L418.892 131.248ZM425.804 121.264L447.308 92.08C441.847 96.3467 436.044 98.48 429.9 98.48C424.439 98.48 419.319 96.6027 414.54 92.848L410.444 95.408V121.264H425.804ZM403.276 161.968C411.639 157.36 418.38 155.056 423.5 155.056C427.425 155.056 432.119 156.592 437.58 159.664L440.652 158.384V131.248H426.06L403.276 161.968Z"/>
<path d="M724.394 100.528L717.482 94.64L709.546 101.552L705.962 96.944L729.002 76.72L743.338 89.776L751.274 83.376L755.114 87.728L742.314 99.248V141.744C742.314 149.765 744.277 155.227 748.202 158.128L754.858 152.24L758.698 156.848L735.658 176.816C728.149 171.355 724.394 162.309 724.394 149.68V100.528ZM717.994 49.8399L712.618 54.4479L708.778 49.8399L729.514 31.9199L743.85 44.7199L748.97 40.3679L752.81 44.9759L732.586 62.8959L717.994 49.8399Z"/>
<path d="M800.642 131.248H774.274V99.76H767.874V93.872C781.869 93.872 794.498 88.24 805.762 76.976C813.783 81.9253 820.439 84.4 825.73 84.4C830.85 84.4 835.629 81.84 840.066 76.72L844.93 80.304L814.978 121.264H840.834V154.032H847.49V159.92C831.789 159.92 818.391 165.467 807.298 176.56C800.301 171.44 793.901 168.88 788.098 168.88C782.637 168.88 778.029 171.525 774.274 176.816L769.666 173.744L800.642 131.248ZM807.554 121.264L829.058 92.08C823.597 96.3467 817.794 98.48 811.65 98.48C806.189 98.48 801.069 96.6027 796.29 92.848L792.194 95.408V121.264H807.554ZM785.026 161.968C793.389 157.36 800.13 155.056 805.25 155.056C809.175 155.056 813.869 156.592 819.33 159.664L822.402 158.384V131.248H807.81L785.026 161.968Z"/>
<path d="M947.688 88.24L934.12 99.504V141.488C934.12 150.363 935.571 156.251 938.472 159.152L946.408 152.496L950.248 157.104L926.44 176.816C921.832 173.061 918.931 168.88 917.736 164.272C916.712 161.029 916.2 155.824 916.2 148.656L883.176 176.816L869.096 164.272L861.16 170.928L857.32 166.32L870.632 155.056V112.56C870.632 104.368 869.096 98.5653 866.024 95.152L859.112 101.04L855.272 96.688L878.056 76.72C885.053 83.2053 888.552 92.592 888.552 104.88V154.032L894.696 159.152L916.2 140.464V99.248L910.824 93.872L904.168 99.248L900.328 94.896L921.064 76.72L935.144 90.544L943.848 83.632L947.688 88.24Z"/>
<path d="M991.642 131.248H965.274V99.76H958.874V93.872C972.869 93.872 985.498 88.24 996.762 76.976C1004.78 81.9253 1011.44 84.4 1016.73 84.4C1021.85 84.4 1026.63 81.84 1031.07 76.72L1035.93 80.304L1005.98 121.264H1031.83V154.032H1038.49V159.92C1022.79 159.92 1009.39 165.467 998.298 176.56C991.301 171.44 984.901 168.88 979.098 168.88C973.637 168.88 969.029 171.525 965.274 176.816L960.666 173.744L991.642 131.248ZM998.554 121.264L1020.06 92.08C1014.6 96.3467 1008.79 98.48 1002.65 98.48C997.189 98.48 992.069 96.6027 987.29 92.848L983.194 95.408V121.264H998.554ZM976.026 161.968C984.389 157.36 991.13 155.056 996.25 155.056C1000.18 155.056 1004.87 156.592 1010.33 159.664L1013.4 158.384V131.248H998.81L976.026 161.968Z"/>
<path d="M555.202 194.488C555.202 183.053 559.213 173.325 567.234 165.304C574.573 157.965 584.045 152.845 595.65 149.944V97.464C593.773 95.5867 591.81 94.648 589.762 94.648C582.935 94.648 579.522 98.6587 579.522 106.68C579.522 108.216 580.034 110.264 581.058 112.824L575.17 115.128C573.122 109.325 572.098 104.035 572.098 99.256C572.098 85.2613 579.949 78.264 595.65 78.264V46.008C595.65 32.8667 591.042 26.296 581.826 26.296C576.365 26.296 571.757 28.6853 568.002 33.464C564.589 37.9013 562.541 42.936 561.858 48.568L556.482 47.288C557.677 36.536 560.493 27.1493 564.93 19.128C570.733 8.37599 578.157 3 587.202 3C592.322 3 597.015 4.62134 601.282 7.86401C610.498 14.8613 615.106 26.8934 615.106 43.96L626.626 35V6.07202H632.77V30.904L671.426 3.25601L692.418 23.992L701.378 17.848L704.962 22.968L688.322 35L658.511 158.252L656.834 164.52C656.834 164.52 643.437 165.304 628.93 180.152C620.397 173.155 609.901 169.656 597.442 169.656C588.567 169.656 580.717 172.045 573.89 176.824C566.381 182.285 562.626 189.283 562.626 197.816C562.626 205.496 565.613 212.323 571.586 218.296C577.73 224.44 584.642 227.512 592.322 227.512V233.4C581.229 233.4 572.269 229.56 565.442 221.88C558.615 214.541 555.202 205.411 555.202 194.488ZM626.626 153.016V42.936L615.106 51.384V149.688C616.13 149.859 617.581 150.285 619.458 150.968C621.335 151.48 623.725 152.163 626.626 153.016ZM632.77 155.064L643.511 158.752L661.009 71.752C672.511 70.252 656.151 72.888 650.69 72.888C644.546 72.888 638.573 71.608 632.77 69.048V155.064ZM650.69 66.744C657.005 66.744 666.511 64.752 663.011 65.252L669.378 33.208L657.346 20.664L632.77 38.584V62.392C638.061 65.2933 644.034 66.744 650.69 66.744Z"/>
</mask>
<path d="M49.616 233.648C35.4507 233.648 24.016 228.869 15.312 219.312C6.43733 209.925 2 198.149 2 183.984C2 172.549 5.49867 161.627 12.496 151.216C19.8347 139.952 29.3067 134.32 40.912 134.32C48.7627 134.32 58.576 139.44 70.352 149.68C82.2987 159.749 89.552 164.784 92.112 164.784C95.3547 164.784 98.256 163.248 100.816 160.176V36.7839L141.776 3.24793C146.555 11.9519 151.419 16.3039 156.368 16.3039C159.781 16.3039 165.84 12.9759 174.544 6.31994L178.128 11.1839C162.939 24.1546 152.357 30.6399 146.384 30.6399C146.384 30.6399 145.787 30.5546 144.592 30.3839C143.397 30.2133 141.605 29.9573 139.216 29.6159V80.048H160.72L139.216 97.2V219.312L141.776 222.896L128.976 233.648L122.064 224.944L133.328 215.984V99.248H120.272V154.032C117.029 156.763 113.787 159.408 110.544 161.968C107.472 164.528 104.315 167.173 101.072 169.904C93.0507 175.536 85.456 178.352 78.288 178.352C72.656 178.352 64.3787 174.427 53.456 166.576C42.8747 158.725 35.7067 154.8 31.952 154.8C24.784 154.8 18.896 158.384 14.288 165.552C10.5333 171.355 8.656 178.267 8.656 186.288C8.656 197.893 12.6667 207.707 20.688 215.728C28.5387 223.92 38.2667 228.016 49.872 228.016C53.1147 228.016 56.3573 227.675 59.6 226.992V232.368C55.8453 233.221 52.5173 233.648 49.616 233.648ZM133.328 80.048V28.0799C130.427 26.7146 128.037 25.1786 126.16 23.4719L120.272 28.0799V80.048H133.328ZM70.608 137.904V97.712C68.7307 96.176 66.8533 95.408 64.976 95.408C62.0747 95.408 59.6 96.6027 57.552 98.992C55.6747 101.211 54.736 103.856 54.736 106.928C54.736 108.464 55.248 110.512 56.272 113.072L49.872 115.632C48.1653 110.341 47.312 105.307 47.312 100.528C47.312 85.8507 55.0773 78.512 70.608 78.512V51.1199L90.064 35.5039L93.904 40.1119L90.064 43.1839V129.712L70.608 145.584L67.024 140.72L70.608 137.904ZM31.952 33.1999C31.952 26.2026 34.6827 19.4613 40.144 12.9759C45.6053 6.4906 51.92 3.24793 59.088 3.24793C63.5253 3.24793 69.84 4.61327 78.032 7.34394C87.76 10.5866 92.9653 12.2079 93.648 12.2079C97.9147 12.2079 102.693 10.0746 107.984 5.80795L111.568 9.90394C106.789 13.6586 103.205 16.5599 100.816 18.6079C98.4267 20.4853 97.0613 21.5946 96.72 21.9359C90.2347 26.7146 84.5173 29.1039 79.568 29.1039C76.3253 29.1039 71.2907 27.9093 64.464 25.5199C57.808 23.1306 53.1147 21.9359 50.384 21.9359C46.9707 21.9359 44.1547 23.2159 41.936 25.7759C39.888 28.1653 38.864 31.0666 38.864 34.4799C38.864 41.4773 42.192 47.6213 48.848 52.9119L44.496 57.008C36.1333 49.1573 31.952 41.2213 31.952 33.1999Z" fill="#FFEDD4"/>
<path d="M186.644 100.528L179.732 94.64L171.796 101.552L168.212 96.944L191.252 76.72L205.588 89.776L213.524 83.376L217.364 87.728L204.564 99.248V141.744C204.564 149.765 206.527 155.227 210.452 158.128L217.108 152.24L220.948 156.848L197.908 176.816C190.399 171.355 186.644 162.309 186.644 149.68V100.528ZM180.244 49.8399L174.868 54.4479L171.028 49.8399L191.764 31.9199L206.1 44.7199L211.22 40.3679L215.06 44.9759L194.836 62.8959L180.244 49.8399Z" fill="#FFEDD4"/>
<path d="M229.868 165.552L243.436 154.288V112.304C243.436 103.6 241.9 97.712 238.828 94.64L231.148 101.296L227.308 96.688L250.86 76.72C255.639 80.4747 258.711 84.7413 260.076 89.52C260.929 92.9333 261.356 98.224 261.356 105.392L294.38 76.72L308.46 89.52L316.396 82.864L320.236 87.472L306.924 98.736V141.232C306.924 149.765 308.46 155.568 311.532 158.64L318.444 152.752L322.284 157.36L299.5 176.816C292.503 170.672 289.004 161.456 289.004 149.168V99.76L282.86 94.64L261.356 113.328V154.544L266.732 159.92L273.388 154.544L277.228 159.152L256.492 176.816L242.156 163.248L233.708 170.16L229.868 165.552Z" fill="#FFEDD4"/>
<path d="M342.644 100.528L335.732 94.64L327.796 101.552L324.212 96.944L347.252 76.72L361.588 89.776L369.524 83.376L373.364 87.728L360.564 99.248V141.744C360.564 149.765 362.527 155.227 366.452 158.128L373.108 152.24L376.948 156.848L353.908 176.816C346.399 171.355 342.644 162.309 342.644 149.68V100.528ZM336.244 49.8399L330.868 54.4479L327.028 49.8399L347.764 31.9199L362.1 44.7199L367.22 40.3679L371.06 44.9759L350.836 62.8959L336.244 49.8399Z" fill="#FFEDD4"/>
<path d="M418.892 131.248H392.524V99.76H386.124V93.872C400.119 93.872 412.748 88.24 424.012 76.976C432.033 81.9253 438.689 84.4 443.98 84.4C449.1 84.4 453.879 81.84 458.316 76.72L463.18 80.304L433.228 121.264H459.084V154.032H465.74V159.92C450.039 159.92 436.641 165.467 425.548 176.56C418.551 171.44 412.151 168.88 406.348 168.88C400.887 168.88 396.279 171.525 392.524 176.816L387.916 173.744L418.892 131.248ZM425.804 121.264L447.308 92.08C441.847 96.3467 436.044 98.48 429.9 98.48C424.439 98.48 419.319 96.6027 414.54 92.848L410.444 95.408V121.264H425.804ZM403.276 161.968C411.639 157.36 418.38 155.056 423.5 155.056C427.425 155.056 432.119 156.592 437.58 159.664L440.652 158.384V131.248H426.06L403.276 161.968Z" fill="#FFEDD4"/>
<path d="M724.394 100.528L717.482 94.64L709.546 101.552L705.962 96.944L729.002 76.72L743.338 89.776L751.274 83.376L755.114 87.728L742.314 99.248V141.744C742.314 149.765 744.277 155.227 748.202 158.128L754.858 152.24L758.698 156.848L735.658 176.816C728.149 171.355 724.394 162.309 724.394 149.68V100.528ZM717.994 49.8399L712.618 54.4479L708.778 49.8399L729.514 31.9199L743.85 44.7199L748.97 40.3679L752.81 44.9759L732.586 62.8959L717.994 49.8399Z" fill="#FFEDD4"/>
<path d="M800.642 131.248H774.274V99.76H767.874V93.872C781.869 93.872 794.498 88.24 805.762 76.976C813.783 81.9253 820.439 84.4 825.73 84.4C830.85 84.4 835.629 81.84 840.066 76.72L844.93 80.304L814.978 121.264H840.834V154.032H847.49V159.92C831.789 159.92 818.391 165.467 807.298 176.56C800.301 171.44 793.901 168.88 788.098 168.88C782.637 168.88 778.029 171.525 774.274 176.816L769.666 173.744L800.642 131.248ZM807.554 121.264L829.058 92.08C823.597 96.3467 817.794 98.48 811.65 98.48C806.189 98.48 801.069 96.6027 796.29 92.848L792.194 95.408V121.264H807.554ZM785.026 161.968C793.389 157.36 800.13 155.056 805.25 155.056C809.175 155.056 813.869 156.592 819.33 159.664L822.402 158.384V131.248H807.81L785.026 161.968Z" fill="#FFEDD4"/>
<path d="M947.688 88.24L934.12 99.504V141.488C934.12 150.363 935.571 156.251 938.472 159.152L946.408 152.496L950.248 157.104L926.44 176.816C921.832 173.061 918.931 168.88 917.736 164.272C916.712 161.029 916.2 155.824 916.2 148.656L883.176 176.816L869.096 164.272L861.16 170.928L857.32 166.32L870.632 155.056V112.56C870.632 104.368 869.096 98.5653 866.024 95.152L859.112 101.04L855.272 96.688L878.056 76.72C885.053 83.2053 888.552 92.592 888.552 104.88V154.032L894.696 159.152L916.2 140.464V99.248L910.824 93.872L904.168 99.248L900.328 94.896L921.064 76.72L935.144 90.544L943.848 83.632L947.688 88.24Z" fill="#FFEDD4"/>
<path d="M991.642 131.248H965.274V99.76H958.874V93.872C972.869 93.872 985.498 88.24 996.762 76.976C1004.78 81.9253 1011.44 84.4 1016.73 84.4C1021.85 84.4 1026.63 81.84 1031.07 76.72L1035.93 80.304L1005.98 121.264H1031.83V154.032H1038.49V159.92C1022.79 159.92 1009.39 165.467 998.298 176.56C991.301 171.44 984.901 168.88 979.098 168.88C973.637 168.88 969.029 171.525 965.274 176.816L960.666 173.744L991.642 131.248ZM998.554 121.264L1020.06 92.08C1014.6 96.3467 1008.79 98.48 1002.65 98.48C997.189 98.48 992.069 96.6027 987.29 92.848L983.194 95.408V121.264H998.554ZM976.026 161.968C984.389 157.36 991.13 155.056 996.25 155.056C1000.18 155.056 1004.87 156.592 1010.33 159.664L1013.4 158.384V131.248H998.81L976.026 161.968Z" fill="#FFEDD4"/>
<path d="M555.202 194.488C555.202 183.053 559.213 173.325 567.234 165.304C574.573 157.965 584.045 152.845 595.65 149.944V97.464C593.773 95.5867 591.81 94.648 589.762 94.648C582.935 94.648 579.522 98.6587 579.522 106.68C579.522 108.216 580.034 110.264 581.058 112.824L575.17 115.128C573.122 109.325 572.098 104.035 572.098 99.256C572.098 85.2613 579.949 78.264 595.65 78.264V46.008C595.65 32.8667 591.042 26.296 581.826 26.296C576.365 26.296 571.757 28.6853 568.002 33.464C564.589 37.9013 562.541 42.936 561.858 48.568L556.482 47.288C557.677 36.536 560.493 27.1493 564.93 19.128C570.733 8.37599 578.157 3 587.202 3C592.322 3 597.015 4.62134 601.282 7.86401C610.498 14.8613 615.106 26.8934 615.106 43.96L626.626 35V6.07202H632.77V30.904L671.426 3.25601L692.418 23.992L701.378 17.848L704.962 22.968L688.322 35L658.511 158.252L656.834 164.52C656.834 164.52 643.437 165.304 628.93 180.152C620.397 173.155 609.901 169.656 597.442 169.656C588.567 169.656 580.717 172.045 573.89 176.824C566.381 182.285 562.626 189.283 562.626 197.816C562.626 205.496 565.613 212.323 571.586 218.296C577.73 224.44 584.642 227.512 592.322 227.512V233.4C581.229 233.4 572.269 229.56 565.442 221.88C558.615 214.541 555.202 205.411 555.202 194.488ZM626.626 153.016V42.936L615.106 51.384V149.688C616.13 149.859 617.581 150.285 619.458 150.968C621.335 151.48 623.725 152.163 626.626 153.016ZM632.77 155.064L643.511 158.752L661.009 71.752C672.511 70.252 656.151 72.888 650.69 72.888C644.546 72.888 638.573 71.608 632.77 69.048V155.064ZM650.69 66.744C657.005 66.744 666.511 64.752 663.011 65.252L669.378 33.208L657.346 20.664L632.77 38.584V62.392C638.061 65.2933 644.034 66.744 650.69 66.744Z" fill="#FFEDD4"/>
<path d="M49.616 233.648C35.4507 233.648 24.016 228.869 15.312 219.312C6.43733 209.925 2 198.149 2 183.984C2 172.549 5.49867 161.627 12.496 151.216C19.8347 139.952 29.3067 134.32 40.912 134.32C48.7627 134.32 58.576 139.44 70.352 149.68C82.2987 159.749 89.552 164.784 92.112 164.784C95.3547 164.784 98.256 163.248 100.816 160.176V36.7839L141.776 3.24793C146.555 11.9519 151.419 16.3039 156.368 16.3039C159.781 16.3039 165.84 12.9759 174.544 6.31994L178.128 11.1839C162.939 24.1546 152.357 30.6399 146.384 30.6399C146.384 30.6399 145.787 30.5546 144.592 30.3839C143.397 30.2133 141.605 29.9573 139.216 29.6159V80.048H160.72L139.216 97.2V219.312L141.776 222.896L128.976 233.648L122.064 224.944L133.328 215.984V99.248H120.272V154.032C117.029 156.763 113.787 159.408 110.544 161.968C107.472 164.528 104.315 167.173 101.072 169.904C93.0507 175.536 85.456 178.352 78.288 178.352C72.656 178.352 64.3787 174.427 53.456 166.576C42.8747 158.725 35.7067 154.8 31.952 154.8C24.784 154.8 18.896 158.384 14.288 165.552C10.5333 171.355 8.656 178.267 8.656 186.288C8.656 197.893 12.6667 207.707 20.688 215.728C28.5387 223.92 38.2667 228.016 49.872 228.016C53.1147 228.016 56.3573 227.675 59.6 226.992V232.368C55.8453 233.221 52.5173 233.648 49.616 233.648ZM133.328 80.048V28.0799C130.427 26.7146 128.037 25.1786 126.16 23.4719L120.272 28.0799V80.048H133.328ZM70.608 137.904V97.712C68.7307 96.176 66.8533 95.408 64.976 95.408C62.0747 95.408 59.6 96.6027 57.552 98.992C55.6747 101.211 54.736 103.856 54.736 106.928C54.736 108.464 55.248 110.512 56.272 113.072L49.872 115.632C48.1653 110.341 47.312 105.307 47.312 100.528C47.312 85.8507 55.0773 78.512 70.608 78.512V51.1199L90.064 35.5039L93.904 40.1119L90.064 43.1839V129.712L70.608 145.584L67.024 140.72L70.608 137.904ZM31.952 33.1999C31.952 26.2026 34.6827 19.4613 40.144 12.9759C45.6053 6.4906 51.92 3.24793 59.088 3.24793C63.5253 3.24793 69.84 4.61327 78.032 7.34394C87.76 10.5866 92.9653 12.2079 93.648 12.2079C97.9147 12.2079 102.693 10.0746 107.984 5.80795L111.568 9.90394C106.789 13.6586 103.205 16.5599 100.816 18.6079C98.4267 20.4853 97.0613 21.5946 96.72 21.9359C90.2347 26.7146 84.5173 29.1039 79.568 29.1039C76.3253 29.1039 71.2907 27.9093 64.464 25.5199C57.808 23.1306 53.1147 21.9359 50.384 21.9359C46.9707 21.9359 44.1547 23.2159 41.936 25.7759C39.888 28.1653 38.864 31.0666 38.864 34.4799C38.864 41.4773 42.192 47.6213 48.848 52.9119L44.496 57.008C36.1333 49.1573 31.952 41.2213 31.952 33.1999Z" stroke="#FFEDD4" stroke-width="4" mask="url(#path-1-outside-1_26_110)"/>
<path d="M186.644 100.528L179.732 94.64L171.796 101.552L168.212 96.944L191.252 76.72L205.588 89.776L213.524 83.376L217.364 87.728L204.564 99.248V141.744C204.564 149.765 206.527 155.227 210.452 158.128L217.108 152.24L220.948 156.848L197.908 176.816C190.399 171.355 186.644 162.309 186.644 149.68V100.528ZM180.244 49.8399L174.868 54.4479L171.028 49.8399L191.764 31.9199L206.1 44.7199L211.22 40.3679L215.06 44.9759L194.836 62.8959L180.244 49.8399Z" stroke="#FFEDD4" stroke-width="4" mask="url(#path-1-outside-1_26_110)"/>
<path d="M229.868 165.552L243.436 154.288V112.304C243.436 103.6 241.9 97.712 238.828 94.64L231.148 101.296L227.308 96.688L250.86 76.72C255.639 80.4747 258.711 84.7413 260.076 89.52C260.929 92.9333 261.356 98.224 261.356 105.392L294.38 76.72L308.46 89.52L316.396 82.864L320.236 87.472L306.924 98.736V141.232C306.924 149.765 308.46 155.568 311.532 158.64L318.444 152.752L322.284 157.36L299.5 176.816C292.503 170.672 289.004 161.456 289.004 149.168V99.76L282.86 94.64L261.356 113.328V154.544L266.732 159.92L273.388 154.544L277.228 159.152L256.492 176.816L242.156 163.248L233.708 170.16L229.868 165.552Z" stroke="#FFEDD4" stroke-width="4" mask="url(#path-1-outside-1_26_110)"/>
<path d="M342.644 100.528L335.732 94.64L327.796 101.552L324.212 96.944L347.252 76.72L361.588 89.776L369.524 83.376L373.364 87.728L360.564 99.248V141.744C360.564 149.765 362.527 155.227 366.452 158.128L373.108 152.24L376.948 156.848L353.908 176.816C346.399 171.355 342.644 162.309 342.644 149.68V100.528ZM336.244 49.8399L330.868 54.4479L327.028 49.8399L347.764 31.9199L362.1 44.7199L367.22 40.3679L371.06 44.9759L350.836 62.8959L336.244 49.8399Z" stroke="#FFEDD4" stroke-width="4" mask="url(#path-1-outside-1_26_110)"/>
<path d="M418.892 131.248H392.524V99.76H386.124V93.872C400.119 93.872 412.748 88.24 424.012 76.976C432.033 81.9253 438.689 84.4 443.98 84.4C449.1 84.4 453.879 81.84 458.316 76.72L463.18 80.304L433.228 121.264H459.084V154.032H465.74V159.92C450.039 159.92 436.641 165.467 425.548 176.56C418.551 171.44 412.151 168.88 406.348 168.88C400.887 168.88 396.279 171.525 392.524 176.816L387.916 173.744L418.892 131.248ZM425.804 121.264L447.308 92.08C441.847 96.3467 436.044 98.48 429.9 98.48C424.439 98.48 419.319 96.6027 414.54 92.848L410.444 95.408V121.264H425.804ZM403.276 161.968C411.639 157.36 418.38 155.056 423.5 155.056C427.425 155.056 432.119 156.592 437.58 159.664L440.652 158.384V131.248H426.06L403.276 161.968Z" stroke="#FFEDD4" stroke-width="4" mask="url(#path-1-outside-1_26_110)"/>
<path d="M724.394 100.528L717.482 94.64L709.546 101.552L705.962 96.944L729.002 76.72L743.338 89.776L751.274 83.376L755.114 87.728L742.314 99.248V141.744C742.314 149.765 744.277 155.227 748.202 158.128L754.858 152.24L758.698 156.848L735.658 176.816C728.149 171.355 724.394 162.309 724.394 149.68V100.528ZM717.994 49.8399L712.618 54.4479L708.778 49.8399L729.514 31.9199L743.85 44.7199L748.97 40.3679L752.81 44.9759L732.586 62.8959L717.994 49.8399Z" stroke="#FFEDD4" stroke-width="4" mask="url(#path-1-outside-1_26_110)"/>
<path d="M800.642 131.248H774.274V99.76H767.874V93.872C781.869 93.872 794.498 88.24 805.762 76.976C813.783 81.9253 820.439 84.4 825.73 84.4C830.85 84.4 835.629 81.84 840.066 76.72L844.93 80.304L814.978 121.264H840.834V154.032H847.49V159.92C831.789 159.92 818.391 165.467 807.298 176.56C800.301 171.44 793.901 168.88 788.098 168.88C782.637 168.88 778.029 171.525 774.274 176.816L769.666 173.744L800.642 131.248ZM807.554 121.264L829.058 92.08C823.597 96.3467 817.794 98.48 811.65 98.48C806.189 98.48 801.069 96.6027 796.29 92.848L792.194 95.408V121.264H807.554ZM785.026 161.968C793.389 157.36 800.13 155.056 805.25 155.056C809.175 155.056 813.869 156.592 819.33 159.664L822.402 158.384V131.248H807.81L785.026 161.968Z" stroke="#FFEDD4" stroke-width="4" mask="url(#path-1-outside-1_26_110)"/>
<path d="M947.688 88.24L934.12 99.504V141.488C934.12 150.363 935.571 156.251 938.472 159.152L946.408 152.496L950.248 157.104L926.44 176.816C921.832 173.061 918.931 168.88 917.736 164.272C916.712 161.029 916.2 155.824 916.2 148.656L883.176 176.816L869.096 164.272L861.16 170.928L857.32 166.32L870.632 155.056V112.56C870.632 104.368 869.096 98.5653 866.024 95.152L859.112 101.04L855.272 96.688L878.056 76.72C885.053 83.2053 888.552 92.592 888.552 104.88V154.032L894.696 159.152L916.2 140.464V99.248L910.824 93.872L904.168 99.248L900.328 94.896L921.064 76.72L935.144 90.544L943.848 83.632L947.688 88.24Z" stroke="#FFEDD4" stroke-width="4" mask="url(#path-1-outside-1_26_110)"/>
<path d="M991.642 131.248H965.274V99.76H958.874V93.872C972.869 93.872 985.498 88.24 996.762 76.976C1004.78 81.9253 1011.44 84.4 1016.73 84.4C1021.85 84.4 1026.63 81.84 1031.07 76.72L1035.93 80.304L1005.98 121.264H1031.83V154.032H1038.49V159.92C1022.79 159.92 1009.39 165.467 998.298 176.56C991.301 171.44 984.901 168.88 979.098 168.88C973.637 168.88 969.029 171.525 965.274 176.816L960.666 173.744L991.642 131.248ZM998.554 121.264L1020.06 92.08C1014.6 96.3467 1008.79 98.48 1002.65 98.48C997.189 98.48 992.069 96.6027 987.29 92.848L983.194 95.408V121.264H998.554ZM976.026 161.968C984.389 157.36 991.13 155.056 996.25 155.056C1000.18 155.056 1004.87 156.592 1010.33 159.664L1013.4 158.384V131.248H998.81L976.026 161.968Z" stroke="#FFEDD4" stroke-width="4" mask="url(#path-1-outside-1_26_110)"/>
<path d="M555.202 194.488C555.202 183.053 559.213 173.325 567.234 165.304C574.573 157.965 584.045 152.845 595.65 149.944V97.464C593.773 95.5867 591.81 94.648 589.762 94.648C582.935 94.648 579.522 98.6587 579.522 106.68C579.522 108.216 580.034 110.264 581.058 112.824L575.17 115.128C573.122 109.325 572.098 104.035 572.098 99.256C572.098 85.2613 579.949 78.264 595.65 78.264V46.008C595.65 32.8667 591.042 26.296 581.826 26.296C576.365 26.296 571.757 28.6853 568.002 33.464C564.589 37.9013 562.541 42.936 561.858 48.568L556.482 47.288C557.677 36.536 560.493 27.1493 564.93 19.128C570.733 8.37599 578.157 3 587.202 3C592.322 3 597.015 4.62134 601.282 7.86401C610.498 14.8613 615.106 26.8934 615.106 43.96L626.626 35V6.07202H632.77V30.904L671.426 3.25601L692.418 23.992L701.378 17.848L704.962 22.968L688.322 35L658.511 158.252L656.834 164.52C656.834 164.52 643.437 165.304 628.93 180.152C620.397 173.155 609.901 169.656 597.442 169.656C588.567 169.656 580.717 172.045 573.89 176.824C566.381 182.285 562.626 189.283 562.626 197.816C562.626 205.496 565.613 212.323 571.586 218.296C577.73 224.44 584.642 227.512 592.322 227.512V233.4C581.229 233.4 572.269 229.56 565.442 221.88C558.615 214.541 555.202 205.411 555.202 194.488ZM626.626 153.016V42.936L615.106 51.384V149.688C616.13 149.859 617.581 150.285 619.458 150.968C621.335 151.48 623.725 152.163 626.626 153.016ZM632.77 155.064L643.511 158.752L661.009 71.752C672.511 70.252 656.151 72.888 650.69 72.888C644.546 72.888 638.573 71.608 632.77 69.048V155.064ZM650.69 66.744C657.005 66.744 666.511 64.752 663.011 65.252L669.378 33.208L657.346 20.664L632.77 38.584V62.392C638.061 65.2933 644.034 66.744 650.69 66.744Z" stroke="#FFEDD4" stroke-width="4" mask="url(#path-1-outside-1_26_110)"/>
</svg>
