<svg width="325" height="238" viewBox="0 0 325 238" fill="none" xmlns="http://www.w3.org/2000/svg">
<mask id="path-1-outside-1_18_100" maskUnits="userSpaceOnUse" x="0" y="0" width="325" height="238" fill="black">
<rect fill="white" width="325" height="238"/>
<path d="M49.616 234.4C35.4507 234.4 24.016 229.621 15.312 220.064C6.43735 210.677 2 198.901 2 184.736C2 173.301 5.49867 162.379 12.496 151.968C19.8347 140.704 29.3067 135.072 40.912 135.072C48.7627 135.072 58.576 140.192 70.352 150.432C82.2987 160.501 89.552 165.536 92.112 165.536C95.3547 165.536 98.256 164 100.816 160.928V37.536L141.776 4C146.555 12.704 151.419 17.056 156.368 17.056C159.781 17.056 165.84 13.728 174.544 7.07202L178.128 11.936C162.939 24.9066 152.357 31.392 146.384 31.392C146.384 31.392 145.787 31.3067 144.592 31.136C143.397 30.9653 141.605 30.7093 139.216 30.368V80.8H160.72L139.216 97.952V220.064L141.776 223.648L128.976 234.4L122.064 225.696L133.328 216.736V100H120.272V154.784C117.029 157.515 113.787 160.16 110.544 162.72C107.472 165.28 104.315 167.925 101.072 170.656C93.0507 176.288 85.456 179.104 78.288 179.104C72.656 179.104 64.3787 175.179 53.456 167.328C42.8747 159.477 35.7067 155.552 31.952 155.552C24.784 155.552 18.896 159.136 14.288 166.304C10.5333 172.107 8.65601 179.019 8.65601 187.04C8.65601 198.645 12.6667 208.459 20.688 216.48C28.5387 224.672 38.2667 228.768 49.872 228.768C53.1147 228.768 56.3573 228.427 59.6 227.744V233.12C55.8453 233.973 52.5173 234.4 49.616 234.4ZM133.328 80.8V28.832C130.427 27.4666 128.037 25.9307 126.16 24.224L120.272 28.832V80.8H133.328ZM70.608 138.656V98.464C68.7307 96.928 66.8533 96.16 64.976 96.16C62.0747 96.16 59.6 97.3547 57.552 99.744C55.6747 101.963 54.736 104.608 54.736 107.68C54.736 109.216 55.248 111.264 56.272 113.824L49.872 116.384C48.1653 111.093 47.312 106.059 47.312 101.28C47.312 86.6027 55.0773 79.264 70.608 79.264V51.872L90.064 36.256L93.904 40.864L90.064 43.936V130.464L70.608 146.336L67.024 141.472L70.608 138.656ZM31.952 33.952C31.952 26.9547 34.6827 20.2134 40.144 13.728C45.6053 7.24269 51.92 4 59.088 4C63.5253 4 69.84 5.36534 78.032 8.09601C87.76 11.3387 92.9653 12.96 93.648 12.96C97.9147 12.96 102.693 10.8267 107.984 6.56L111.568 10.656C106.789 14.4107 103.205 17.312 100.816 19.36C98.4267 21.2373 97.0613 22.3467 96.72 22.688C90.2347 27.4667 84.5173 29.856 79.568 29.856C76.3253 29.856 71.2907 28.6613 64.464 26.272C57.808 23.8826 53.1147 22.688 50.384 22.688C46.9707 22.688 44.1547 23.968 41.936 26.528C39.888 28.9174 38.864 31.8187 38.864 35.232C38.864 42.2293 42.192 48.3733 48.848 53.664L44.496 57.76C36.1333 49.9093 31.952 41.9734 31.952 33.952Z"/>
<path d="M172.052 195.488C172.052 184.053 176.063 174.325 184.084 166.304C191.423 158.965 200.895 153.845 212.5 150.944V98.464C210.623 96.5867 208.66 95.648 206.612 95.648C199.785 95.648 196.372 99.6587 196.372 107.68C196.372 109.216 196.884 111.264 197.908 113.824L192.02 116.128C189.972 110.325 188.948 105.035 188.948 100.256C188.948 86.2613 196.799 79.264 212.5 79.264V47.008C212.5 33.8667 207.892 27.296 198.676 27.296C193.215 27.296 188.607 29.6853 184.852 34.464C181.439 38.9013 179.391 43.936 178.708 49.568L173.332 48.288C174.527 37.536 177.343 28.1493 181.78 20.128C187.583 9.37599 195.007 4 204.052 4C209.172 4 213.865 5.62134 218.132 8.86401C227.348 15.8613 231.956 27.8934 231.956 44.96L243.476 36V7.07202H249.62V31.904L288.276 4.25598L309.268 24.992L318.228 18.848L321.812 23.968L305.172 36L275.361 159.252L273.684 165.52C273.684 165.52 260.287 166.304 245.78 181.152C237.247 174.155 226.751 170.656 214.292 170.656C205.417 170.656 197.567 173.045 190.74 177.824C183.231 183.285 179.476 190.283 179.476 198.816C179.476 206.496 182.463 213.323 188.436 219.296C194.58 225.44 201.492 228.512 209.172 228.512V234.4C198.079 234.4 189.119 230.56 182.292 222.88C175.465 215.541 172.052 206.411 172.052 195.488ZM243.476 154.016V43.936L231.956 52.384V150.688C232.98 150.859 234.431 151.285 236.308 151.968C238.185 152.48 240.575 153.163 243.476 154.016ZM249.62 156.064L260.361 159.752L277.859 72.752C289.361 71.252 273.001 73.888 267.54 73.888C261.396 73.888 255.423 72.608 249.62 70.048V156.064ZM267.54 67.744C273.855 67.744 283.361 65.752 279.861 66.252L286.228 34.208L274.196 21.664L249.62 39.584V63.392C254.911 66.2933 260.884 67.744 267.54 67.744Z"/>
</mask>
<path d="M49.616 234.4C35.4507 234.4 24.016 229.621 15.312 220.064C6.43735 210.677 2 198.901 2 184.736C2 173.301 5.49867 162.379 12.496 151.968C19.8347 140.704 29.3067 135.072 40.912 135.072C48.7627 135.072 58.576 140.192 70.352 150.432C82.2987 160.501 89.552 165.536 92.112 165.536C95.3547 165.536 98.256 164 100.816 160.928V37.536L141.776 4C146.555 12.704 151.419 17.056 156.368 17.056C159.781 17.056 165.84 13.728 174.544 7.07202L178.128 11.936C162.939 24.9066 152.357 31.392 146.384 31.392C146.384 31.392 145.787 31.3067 144.592 31.136C143.397 30.9653 141.605 30.7093 139.216 30.368V80.8H160.72L139.216 97.952V220.064L141.776 223.648L128.976 234.4L122.064 225.696L133.328 216.736V100H120.272V154.784C117.029 157.515 113.787 160.16 110.544 162.72C107.472 165.28 104.315 167.925 101.072 170.656C93.0507 176.288 85.456 179.104 78.288 179.104C72.656 179.104 64.3787 175.179 53.456 167.328C42.8747 159.477 35.7067 155.552 31.952 155.552C24.784 155.552 18.896 159.136 14.288 166.304C10.5333 172.107 8.65601 179.019 8.65601 187.04C8.65601 198.645 12.6667 208.459 20.688 216.48C28.5387 224.672 38.2667 228.768 49.872 228.768C53.1147 228.768 56.3573 228.427 59.6 227.744V233.12C55.8453 233.973 52.5173 234.4 49.616 234.4ZM133.328 80.8V28.832C130.427 27.4666 128.037 25.9307 126.16 24.224L120.272 28.832V80.8H133.328ZM70.608 138.656V98.464C68.7307 96.928 66.8533 96.16 64.976 96.16C62.0747 96.16 59.6 97.3547 57.552 99.744C55.6747 101.963 54.736 104.608 54.736 107.68C54.736 109.216 55.248 111.264 56.272 113.824L49.872 116.384C48.1653 111.093 47.312 106.059 47.312 101.28C47.312 86.6027 55.0773 79.264 70.608 79.264V51.872L90.064 36.256L93.904 40.864L90.064 43.936V130.464L70.608 146.336L67.024 141.472L70.608 138.656ZM31.952 33.952C31.952 26.9547 34.6827 20.2134 40.144 13.728C45.6053 7.24269 51.92 4 59.088 4C63.5253 4 69.84 5.36534 78.032 8.09601C87.76 11.3387 92.9653 12.96 93.648 12.96C97.9147 12.96 102.693 10.8267 107.984 6.56L111.568 10.656C106.789 14.4107 103.205 17.312 100.816 19.36C98.4267 21.2373 97.0613 22.3467 96.72 22.688C90.2347 27.4667 84.5173 29.856 79.568 29.856C76.3253 29.856 71.2907 28.6613 64.464 26.272C57.808 23.8826 53.1147 22.688 50.384 22.688C46.9707 22.688 44.1547 23.968 41.936 26.528C39.888 28.9174 38.864 31.8187 38.864 35.232C38.864 42.2293 42.192 48.3733 48.848 53.664L44.496 57.76C36.1333 49.9093 31.952 41.9734 31.952 33.952Z" fill="#292524"/>
<path d="M172.052 195.488C172.052 184.053 176.063 174.325 184.084 166.304C191.423 158.965 200.895 153.845 212.5 150.944V98.464C210.623 96.5867 208.66 95.648 206.612 95.648C199.785 95.648 196.372 99.6587 196.372 107.68C196.372 109.216 196.884 111.264 197.908 113.824L192.02 116.128C189.972 110.325 188.948 105.035 188.948 100.256C188.948 86.2613 196.799 79.264 212.5 79.264V47.008C212.5 33.8667 207.892 27.296 198.676 27.296C193.215 27.296 188.607 29.6853 184.852 34.464C181.439 38.9013 179.391 43.936 178.708 49.568L173.332 48.288C174.527 37.536 177.343 28.1493 181.78 20.128C187.583 9.37599 195.007 4 204.052 4C209.172 4 213.865 5.62134 218.132 8.86401C227.348 15.8613 231.956 27.8934 231.956 44.96L243.476 36V7.07202H249.62V31.904L288.276 4.25598L309.268 24.992L318.228 18.848L321.812 23.968L305.172 36L275.361 159.252L273.684 165.52C273.684 165.52 260.287 166.304 245.78 181.152C237.247 174.155 226.751 170.656 214.292 170.656C205.417 170.656 197.567 173.045 190.74 177.824C183.231 183.285 179.476 190.283 179.476 198.816C179.476 206.496 182.463 213.323 188.436 219.296C194.58 225.44 201.492 228.512 209.172 228.512V234.4C198.079 234.4 189.119 230.56 182.292 222.88C175.465 215.541 172.052 206.411 172.052 195.488ZM243.476 154.016V43.936L231.956 52.384V150.688C232.98 150.859 234.431 151.285 236.308 151.968C238.185 152.48 240.575 153.163 243.476 154.016ZM249.62 156.064L260.361 159.752L277.859 72.752C289.361 71.252 273.001 73.888 267.54 73.888C261.396 73.888 255.423 72.608 249.62 70.048V156.064ZM267.54 67.744C273.855 67.744 283.361 65.752 279.861 66.252L286.228 34.208L274.196 21.664L249.62 39.584V63.392C254.911 66.2933 260.884 67.744 267.54 67.744Z" fill="#292524"/>
<path d="M260.361 159.752L260.142 160.728L261.135 160.95L261.34 159.954L260.361 159.752ZM260.361 159.752L261.34 159.954L287.207 34.4098L286.228 34.208L285.249 34.0062L259.382 159.55L260.361 159.752ZM249.62 156.064L249.185 156.965C251.726 158.191 254.466 159.13 256.558 159.761C257.607 160.078 258.499 160.318 259.13 160.48C259.446 160.561 259.697 160.623 259.87 160.664C259.956 160.685 260.023 160.7 260.069 160.711C260.092 160.716 260.11 160.72 260.122 160.723C260.128 160.725 260.133 160.726 260.136 160.726C260.138 160.727 260.139 160.727 260.14 160.727C260.141 160.727 260.141 160.728 260.141 160.728C260.142 160.728 260.142 160.728 260.142 160.728C260.142 160.728 260.142 160.728 260.361 159.752C260.58 158.776 260.58 158.776 260.58 158.776C260.58 158.776 260.58 158.776 260.58 158.776C260.58 158.776 260.58 158.776 260.58 158.776C260.579 158.776 260.578 158.776 260.577 158.776C260.575 158.775 260.571 158.774 260.566 158.773C260.556 158.771 260.541 158.767 260.52 158.763C260.479 158.753 260.417 158.738 260.335 158.719C260.172 158.68 259.932 158.621 259.627 158.543C259.018 158.387 258.153 158.154 257.135 157.847C255.094 157.231 252.464 156.326 250.055 155.163L249.62 156.064ZM15.312 220.064L16.7907 218.717L16.7781 218.704L16.7653 218.69L15.312 220.064ZM12.496 151.968L14.1559 153.084L14.1639 153.072L14.1717 153.06L12.496 151.968ZM70.352 150.432L69.0396 151.941L69.0513 151.951L69.063 151.961L70.352 150.432ZM100.816 160.928L102.352 162.208L102.816 161.652V160.928H100.816ZM100.816 37.536L99.549 35.9885L98.816 36.5887V37.536H100.816ZM141.776 4L143.529 3.03748L142.371 0.927995L140.509 2.45252L141.776 4ZM174.544 7.07202L176.154 5.88562L174.946 4.24656L173.329 5.48331L174.544 7.07202ZM178.128 11.936L179.427 13.4569L180.842 12.2481L179.738 10.7496L178.128 11.936ZM146.384 31.392L146.101 33.3719L146.242 33.392H146.384V31.392ZM144.592 31.136L144.875 29.1561L144.875 29.1561L144.592 31.136ZM139.216 30.368L139.499 28.3881L137.216 28.062V30.368H139.216ZM139.216 80.8H137.216V82.8H139.216V80.8ZM160.72 80.8L161.967 82.3635L166.435 78.8H160.72V80.8ZM139.216 97.952L137.969 96.3885L137.216 96.989V97.952H139.216ZM139.216 220.064H137.216V220.705L137.589 221.227L139.216 220.064ZM141.776 223.648L143.062 225.179L144.478 223.99L143.403 222.486L141.776 223.648ZM128.976 234.4L127.41 235.644L128.688 237.254L130.262 235.932L128.976 234.4ZM122.064 225.696L120.819 224.131L119.255 225.375L120.498 226.94L122.064 225.696ZM133.328 216.736L134.573 218.301L135.328 217.701V216.736H133.328ZM133.328 100H135.328V98H133.328V100ZM120.272 100V98H118.272V100H120.272ZM120.272 154.784L121.56 156.314L122.272 155.714V154.784H120.272ZM110.544 162.72L109.305 161.15L109.284 161.167L109.264 161.184L110.544 162.72ZM101.072 170.656L102.221 172.293L102.293 172.242L102.36 172.186L101.072 170.656ZM53.456 167.328L52.2643 168.934L52.2764 168.943L52.2887 168.952L53.456 167.328ZM14.288 166.304L15.9671 167.391L15.9704 167.386L14.288 166.304ZM20.688 216.48L22.132 215.096L22.1172 215.081L22.1022 215.066L20.688 216.48ZM59.6 227.744H61.6V225.279L59.188 225.787L59.6 227.744ZM59.6 233.12L60.0432 235.07L61.6 234.717V233.12H59.6ZM133.328 80.8V82.8H135.328V80.8H133.328ZM133.328 28.832H135.328V27.5628L134.18 27.0223L133.328 28.832ZM126.16 24.224L127.505 22.7441L126.257 21.6088L124.927 22.649L126.16 24.224ZM120.272 28.832L119.039 27.257L118.272 27.8575V28.832H120.272ZM120.272 80.8H118.272V82.8H120.272V80.8ZM70.608 138.656L71.8436 140.229L72.608 139.628V138.656H70.608ZM70.608 98.464H72.608V97.5162L71.8745 96.9161L70.608 98.464ZM57.552 99.744L56.0335 98.4424L56.0252 98.4521L57.552 99.744ZM56.272 113.824L57.0148 115.681L58.8717 114.938L58.129 113.081L56.272 113.824ZM49.872 116.384L47.9686 116.998L48.6261 119.036L50.6148 118.241L49.872 116.384ZM70.608 79.264V81.264H72.608V79.264H70.608ZM70.608 51.872L69.3561 50.3123L68.608 50.9127V51.872H70.608ZM90.064 36.256L91.6004 34.9756L90.3434 33.4672L88.8121 34.6962L90.064 36.256ZM93.904 40.864L95.1534 42.4258L96.7467 41.1511L95.4404 39.5837L93.904 40.864ZM90.064 43.936L88.8146 42.3742L88.064 42.9747V43.936H90.064ZM90.064 130.464L91.3282 132.014L92.064 131.414V130.464H90.064ZM70.608 146.336L68.9979 147.522L70.2442 149.214L71.8723 147.886L70.608 146.336ZM67.024 141.472L65.7884 139.899L64.2636 141.097L65.4139 142.658L67.024 141.472ZM40.144 13.728L41.6738 15.0163L41.6738 15.0163L40.144 13.728ZM78.032 8.09601L77.3996 9.99337L77.3996 9.99337L78.032 8.09601ZM107.984 6.56L109.489 5.24299L108.224 3.79711L106.729 5.00317L107.984 6.56ZM111.568 10.656L112.804 12.2286L114.462 10.9259L113.073 9.339L111.568 10.656ZM100.816 19.36L102.052 20.9326L102.085 20.9063L102.118 20.8785L100.816 19.36ZM96.72 22.688L97.9064 24.2981L98.0277 24.2087L98.1342 24.1022L96.72 22.688ZM64.464 26.272L63.7883 28.1544L63.7958 28.1571L63.8033 28.1597L64.464 26.272ZM41.936 26.528L40.4246 25.2181L40.4175 25.2264L41.936 26.528ZM48.848 53.664L50.2187 55.1204L51.9017 53.5364L50.0925 52.0984L48.848 53.664ZM44.496 57.76L43.1271 59.2182L44.4978 60.5049L45.8667 59.2164L44.496 57.76ZM184.084 166.304L185.498 167.718L185.498 167.718L184.084 166.304ZM212.5 150.944L212.985 152.884L214.5 152.506V150.944H212.5ZM212.5 98.464H214.5V97.6356L213.914 97.0498L212.5 98.464ZM197.908 113.824L198.637 115.686L200.513 114.952L199.765 113.081L197.908 113.824ZM192.02 116.128L190.134 116.794L190.822 118.744L192.749 117.99L192.02 116.128ZM212.5 79.264V81.264H214.5V79.264H212.5ZM184.852 34.464L183.279 33.2283L183.273 33.2364L183.267 33.2446L184.852 34.464ZM178.708 49.568L178.245 51.5136L180.424 52.0324L180.693 49.8087L178.708 49.568ZM173.332 48.288L171.344 48.0672L171.149 49.8242L172.869 50.2336L173.332 48.288ZM181.78 20.128L183.53 21.0961L183.535 21.087L183.54 21.0779L181.78 20.128ZM218.132 8.86401L216.922 10.4563L216.923 10.4569L218.132 8.86401ZM231.956 44.96H229.956V49.0493L233.184 46.5387L231.956 44.96ZM243.476 36L244.704 37.5787L245.476 36.9782V36H243.476ZM243.476 7.07202V5.07202H241.476V7.07202H243.476ZM249.62 7.07202H251.62V5.07202H249.62V7.07202ZM249.62 31.904H247.62V35.7934L250.783 33.5307L249.62 31.904ZM288.276 4.25598L289.682 2.83312L288.483 1.64911L287.113 2.62924L288.276 4.25598ZM309.268 24.992L307.862 26.4149L309.037 27.5753L310.399 26.6415L309.268 24.992ZM318.228 18.848L319.866 17.7011L318.731 16.0784L317.097 17.1986L318.228 18.848ZM321.812 23.968L322.984 25.5887L324.58 24.4346L323.45 22.8211L321.812 23.968ZM305.172 36L304 34.3793L303.402 34.812L303.228 35.5298L305.172 36ZM275.361 159.252L277.293 159.769L277.299 159.746L277.305 159.722L275.361 159.252ZM273.684 165.52L273.801 167.517L275.243 167.432L275.616 166.037L273.684 165.52ZM245.78 181.152L244.512 182.699L245.929 183.861L247.211 182.55L245.78 181.152ZM190.74 177.824L189.593 176.186L189.578 176.196L189.564 176.207L190.74 177.824ZM188.436 219.296L187.022 220.71L187.022 220.71L188.436 219.296ZM209.172 228.512H211.172V226.512H209.172V228.512ZM209.172 234.4V236.4H211.172V234.4H209.172ZM182.292 222.88L183.787 221.551L183.772 221.534L183.756 221.518L182.292 222.88ZM243.476 154.016L242.912 155.935L245.476 156.689V154.016H243.476ZM243.476 43.936H245.476V39.9892L242.293 42.3232L243.476 43.936ZM231.956 52.384L230.773 50.7712L229.956 51.3705V52.384H231.956ZM231.956 150.688H229.956V152.382L231.627 152.661L231.956 150.688ZM236.308 151.968L235.624 153.848L235.702 153.876L235.782 153.898L236.308 151.968ZM260.361 159.752L259.711 161.644L261.871 162.385L262.322 160.146L260.361 159.752ZM286.228 34.208L288.19 34.5978L288.393 33.5756L287.671 32.8236L286.228 34.208ZM249.62 156.064H247.62V157.492L248.971 157.956L249.62 156.064ZM277.859 72.752L277.601 70.7688L276.181 70.954L275.899 72.3577L277.859 72.752ZM249.62 70.048L250.427 68.2181L247.62 66.9796V70.048H249.62ZM279.861 66.252L277.899 65.8622L277.349 68.6311L280.144 68.2319L279.861 66.252ZM274.196 21.664L275.639 20.2795L274.43 19.0184L273.018 20.048L274.196 21.664ZM249.62 39.584L248.442 37.968L247.62 38.5671V39.584H249.62ZM249.62 63.392H247.62V64.5762L248.658 65.1456L249.62 63.392ZM49.616 234.4V232.4C35.9533 232.4 25.077 227.816 16.7907 218.717L15.312 220.064L13.8333 221.411C22.9551 231.427 34.948 236.4 49.616 236.4V234.4ZM15.312 220.064L16.7653 218.69C8.27703 209.712 4 198.444 4 184.736H2H0C0 199.359 4.59766 211.643 13.8587 221.438L15.312 220.064ZM2 184.736H4C4 173.737 7.35784 163.198 14.1559 153.084L12.496 151.968L10.8361 150.852C3.6395 161.559 0 172.866 0 184.736H2ZM12.496 151.968L14.1717 153.06C21.2095 142.258 30.099 137.072 40.912 137.072V135.072V133.072C28.5143 133.072 18.4598 139.15 10.8203 150.876L12.496 151.968ZM40.912 135.072V137.072C47.9885 137.072 57.3206 141.751 69.0396 151.941L70.352 150.432L71.6643 148.923C59.8314 138.633 49.5368 133.072 40.912 133.072V135.072ZM70.352 150.432L69.063 151.961C75.0538 157.011 79.9091 160.833 83.6116 163.403C85.46 164.686 87.0613 165.685 88.399 166.371C89.6541 167.015 90.9571 167.536 92.112 167.536V165.536V163.536C92.1134 163.536 92.1024 163.536 92.0775 163.533C92.0526 163.531 92.0169 163.525 91.9692 163.516C91.8724 163.496 91.7409 163.462 91.5709 163.405C91.2272 163.289 90.782 163.098 90.2249 162.813C89.1093 162.24 87.6706 161.351 85.8924 160.117C82.3416 157.652 77.5968 153.923 71.6409 148.903L70.352 150.432ZM92.112 165.536V167.536C96.0846 167.536 99.5094 165.62 102.352 162.208L100.816 160.928L99.2796 159.648C97.0027 162.38 94.6248 163.536 92.112 163.536V165.536ZM100.816 160.928H102.816V37.536H100.816H98.816V160.928H100.816ZM100.816 37.536L102.083 39.0835L143.043 5.54748L141.776 4L140.509 2.45252L99.549 35.9885L100.816 37.536ZM141.776 4L140.023 4.96252C142.47 9.4205 145.01 12.8983 147.674 15.2825C150.354 17.6799 153.262 19.056 156.368 19.056V17.056V15.056C154.525 15.056 152.526 14.2561 150.342 12.3015C148.142 10.3337 145.86 7.2835 143.529 3.03748L141.776 4ZM156.368 17.056V19.056C158.609 19.056 161.355 18.0048 164.435 16.313C167.588 14.5811 171.368 12.0189 175.759 8.66074L174.544 7.07202L173.329 5.48331C169.017 8.78117 165.415 11.2109 162.509 12.807C159.53 14.4432 157.54 15.056 156.368 15.056V17.056ZM174.544 7.07202L172.934 8.25842L176.518 13.1224L178.128 11.936L179.738 10.7496L176.154 5.88562L174.544 7.07202ZM178.128 11.936L176.829 10.4151C169.272 16.868 162.919 21.6575 157.755 24.8228C152.506 28.0399 148.777 29.392 146.384 29.392V31.392V33.392C149.964 33.392 154.513 31.5015 159.845 28.2332C165.262 24.9132 171.794 19.9746 179.427 13.4569L178.128 11.936ZM146.384 31.392C146.667 29.4121 146.667 29.4121 146.667 29.4121C146.667 29.4121 146.667 29.4121 146.667 29.4121C146.667 29.4121 146.667 29.4121 146.667 29.4121C146.667 29.4121 146.667 29.4121 146.667 29.4121C146.666 29.412 146.666 29.412 146.665 29.4119C146.664 29.4117 146.662 29.4115 146.66 29.4111C146.655 29.4105 146.648 29.4095 146.639 29.4081C146.62 29.4055 146.592 29.4015 146.555 29.3961C146.48 29.3855 146.368 29.3695 146.219 29.3481C145.92 29.3054 145.472 29.2414 144.875 29.1561L144.592 31.136L144.309 33.1159C144.906 33.2012 145.354 33.2652 145.653 33.3079C145.802 33.3292 145.914 33.3452 145.989 33.3559C146.026 33.3612 146.054 33.3652 146.073 33.3679C146.082 33.3692 146.089 33.3702 146.094 33.3709C146.096 33.3712 146.098 33.3715 146.099 33.3717C146.1 33.3717 146.1 33.3718 146.101 33.3718C146.101 33.3719 146.101 33.3719 146.101 33.3719C146.101 33.3719 146.101 33.3719 146.101 33.3719C146.101 33.3719 146.101 33.3719 146.101 33.3719C146.101 33.3719 146.101 33.3719 146.384 31.392ZM144.592 31.136L144.875 29.1561C144.278 29.0708 143.531 28.9641 142.635 28.8361C141.739 28.7081 140.694 28.5587 139.499 28.3881L139.216 30.368L138.933 32.3479C140.128 32.5185 141.173 32.6679 142.069 32.7959C142.965 32.9239 143.712 33.0306 144.309 33.1159L144.592 31.136ZM139.216 30.368H137.216V80.8H139.216H141.216V30.368H139.216ZM139.216 80.8V82.8H160.72V80.8V78.8H139.216V80.8ZM160.72 80.8L159.473 79.2364L137.969 96.3885L139.216 97.952L140.463 99.5156L161.967 82.3635L160.72 80.8ZM139.216 97.952H137.216V220.064H139.216H141.216V97.952H139.216ZM139.216 220.064L137.589 221.227L140.149 224.811L141.776 223.648L143.403 222.486L140.843 218.902L139.216 220.064ZM141.776 223.648L140.49 222.117L127.69 232.869L128.976 234.4L130.262 235.932L143.062 225.179L141.776 223.648ZM128.976 234.4L130.542 233.156L123.63 224.452L122.064 225.696L120.498 226.94L127.41 235.644L128.976 234.4ZM122.064 225.696L123.309 227.261L134.573 218.301L133.328 216.736L132.083 215.171L120.819 224.131L122.064 225.696ZM133.328 216.736H135.328V100H133.328H131.328V216.736H133.328ZM133.328 100V98H120.272V100V102H133.328V100ZM120.272 100H118.272V154.784H120.272H122.272V100H120.272ZM120.272 154.784L118.984 153.254C115.757 155.972 112.53 158.604 109.305 161.15L110.544 162.72L111.783 164.29C115.043 161.716 118.302 159.058 121.56 156.314L120.272 154.784ZM110.544 162.72L109.264 161.184C106.189 163.746 103.029 166.393 99.7837 169.126L101.072 170.656L102.36 172.186C105.6 169.457 108.755 166.814 111.824 164.256L110.544 162.72ZM101.072 170.656L99.9228 169.019C92.1173 174.5 84.9183 177.104 78.288 177.104V179.104V181.104C85.9937 181.104 93.9841 178.076 102.221 172.293L101.072 170.656ZM78.288 179.104V177.104C75.8975 177.104 72.732 176.259 68.713 174.353C64.7206 172.46 60.0277 169.588 54.6233 165.704L53.456 167.328L52.2887 168.952C57.8069 172.918 62.7141 175.935 66.999 177.967C71.2573 179.986 75.0465 181.104 78.288 181.104V179.104ZM53.456 167.328L54.6477 165.722C49.3221 161.771 44.8023 158.767 41.1046 156.742C37.496 154.766 34.3768 153.552 31.952 153.552V155.552V157.552C33.2818 157.552 35.624 158.301 39.1834 160.25C42.6537 162.151 47.0085 165.035 52.2643 168.934L53.456 167.328ZM31.952 155.552V153.552C23.9667 153.552 17.501 157.607 12.6056 165.223L14.288 166.304L15.9704 167.386C20.291 160.665 25.6013 157.552 31.952 157.552V155.552ZM14.288 166.304L12.6089 165.218C8.61284 171.393 6.65601 178.696 6.65601 187.04H8.65601H10.656C10.656 179.341 12.4538 172.82 15.9671 167.391L14.288 166.304ZM8.65601 187.04H6.65601C6.65601 199.162 10.8678 209.488 19.2738 217.894L20.688 216.48L22.1022 215.066C14.4655 207.429 10.656 198.129 10.656 187.04H8.65601ZM20.688 216.48L19.244 217.864C27.4815 226.459 37.7355 230.768 49.872 230.768V228.768V226.768C38.7978 226.768 29.5958 222.885 22.132 215.096L20.688 216.48ZM49.872 228.768V230.768C53.2561 230.768 56.6368 230.412 60.012 229.701L59.6 227.744L59.188 225.787C56.0779 226.442 52.9732 226.768 49.872 226.768V228.768ZM59.6 227.744H57.6V233.12H59.6H61.6V227.744H59.6ZM59.6 233.12L59.1568 231.17C55.5033 232 52.3288 232.4 49.616 232.4V234.4V236.4C52.7058 236.4 56.1873 235.947 60.0432 235.07L59.6 233.12ZM133.328 80.8H135.328V28.832H133.328H131.328V80.8H133.328ZM133.328 28.832L134.18 27.0223C131.413 25.7205 129.203 24.287 127.505 22.7441L126.16 24.224L124.815 25.7039C126.872 27.5743 129.44 29.2128 132.476 30.6416L133.328 28.832ZM126.16 24.224L124.927 22.649L119.039 27.257L120.272 28.832L121.505 30.407L127.393 25.799L126.16 24.224ZM120.272 28.832H118.272V80.8H120.272H122.272V28.832H120.272ZM120.272 80.8V82.8H133.328V80.8V78.8H120.272V80.8ZM70.608 138.656H72.608V98.464H70.608H68.608V138.656H70.608ZM70.608 98.464L71.8745 96.9161C69.7457 95.1744 67.4355 94.16 64.976 94.16V96.16V98.16C66.2712 98.16 67.7156 98.6816 69.3415 100.012L70.608 98.464ZM64.976 96.16V94.16C61.4371 94.16 58.425 95.6523 56.0335 98.4424L57.552 99.744L59.0705 101.046C60.775 99.0571 62.7122 98.16 64.976 98.16V96.16ZM57.552 99.744L56.0252 98.4521C53.824 101.054 52.736 104.164 52.736 107.68H54.736H56.736C56.736 105.052 57.5254 102.872 59.0788 101.036L57.552 99.744ZM54.736 107.68H52.736C52.736 109.598 53.3596 111.928 54.4151 114.567L56.272 113.824L58.129 113.081C57.1364 110.6 56.736 108.834 56.736 107.68H54.736ZM56.272 113.824L55.5292 111.967L49.1292 114.527L49.872 116.384L50.6148 118.241L57.0148 115.681L56.272 113.824ZM49.872 116.384L51.7754 115.77C50.1225 110.646 49.312 105.819 49.312 101.28H47.312H45.312C45.312 106.298 46.2081 111.541 47.9686 116.998L49.872 116.384ZM47.312 101.28H49.312C49.312 94.2794 51.1584 89.3888 54.5097 86.2216C57.8822 83.0344 63.1237 81.264 70.608 81.264V79.264V77.264C62.5617 77.264 56.1551 79.163 51.7623 83.3144C47.3483 87.4859 45.312 93.6033 45.312 101.28H47.312ZM70.608 79.264H72.608V51.872H70.608H68.608V79.264H70.608ZM70.608 51.872L71.8599 53.4317L91.3159 37.8157L90.064 36.256L88.8121 34.6962L69.3561 50.3123L70.608 51.872ZM90.064 36.256L88.5275 37.5363L92.3675 42.1444L93.904 40.864L95.4404 39.5837L91.6004 34.9756L90.064 36.256ZM93.904 40.864L92.6546 39.3023L88.8146 42.3742L90.064 43.936L91.3134 45.4977L95.1534 42.4258L93.904 40.864ZM90.064 43.936H88.064V130.464H90.064H92.064V43.936H90.064ZM90.064 130.464L88.7997 128.914L69.3437 144.786L70.608 146.336L71.8723 147.886L91.3282 132.014L90.064 130.464ZM70.608 146.336L72.2181 145.15L68.6341 140.286L67.024 141.472L65.4139 142.658L68.9979 147.522L70.608 146.336ZM67.024 141.472L68.2596 143.045L71.8436 140.229L70.608 138.656L69.3724 137.083L65.7884 139.899L67.024 141.472ZM31.952 33.952H33.952C33.952 27.5205 36.4493 21.2205 41.6738 15.0163L40.144 13.728L38.6142 12.4398C32.9161 19.2062 29.952 26.3889 29.952 33.952H31.952ZM40.144 13.728L41.6738 15.0163C46.832 8.89095 52.6197 6 59.088 6V4V2C51.2203 2 44.3787 5.59442 38.6142 12.4398L40.144 13.728ZM59.088 4V6C63.1924 6 69.2567 7.27909 77.3996 9.99337L78.032 8.09601L78.6645 6.19864C70.4233 3.45158 63.8583 2 59.088 2V4ZM78.032 8.09601L77.3996 9.99337C82.2672 11.6159 86.0154 12.8369 88.6372 13.6535C89.9461 14.0612 90.9893 14.3728 91.757 14.5843C92.1393 14.6895 92.4717 14.7751 92.7437 14.8359C92.9492 14.8818 93.3107 14.96 93.648 14.96V12.96V10.96C93.8147 10.96 93.8642 10.9876 93.6163 10.9322C93.435 10.8917 93.1727 10.8252 92.819 10.7278C92.1147 10.5339 91.1206 10.2375 89.8268 9.8345C87.2432 9.02979 83.5248 7.81874 78.6645 6.19864L78.032 8.09601ZM93.648 12.96V14.96C98.5731 14.96 103.791 12.5111 109.24 8.11682L107.984 6.56L106.729 5.00317C101.596 9.14221 97.2563 10.96 93.648 10.96V12.96ZM107.984 6.56L106.479 7.877L110.063 11.973L111.568 10.656L113.073 9.339L109.489 5.24299L107.984 6.56ZM111.568 10.656L110.332 9.08337C105.548 12.8427 101.937 15.7651 99.5144 17.8415L100.816 19.36L102.118 20.8785C104.474 18.8589 108.031 15.9787 112.804 12.2286L111.568 10.656ZM100.816 19.36L99.5804 17.7874C97.2525 19.6164 95.7556 20.8239 95.3058 21.2738L96.72 22.688L98.1342 24.1022C98.134 24.1024 98.1359 24.1005 98.1405 24.0961C98.1449 24.0919 98.1512 24.0859 98.1594 24.0782C98.1762 24.0626 98.1988 24.042 98.228 24.0159C98.2869 23.9633 98.3645 23.8958 98.4633 23.8119C98.6609 23.6439 98.9257 23.4248 99.2612 23.1522C99.9315 22.6076 100.86 21.8686 102.052 20.9326L100.816 19.36ZM96.72 22.688L95.5336 21.0779C89.194 25.7491 83.8969 27.856 79.568 27.856V29.856V31.856C85.1377 31.856 91.2753 29.1842 97.9064 24.2981L96.72 22.688ZM79.568 29.856V27.856C76.6918 27.856 71.9353 26.768 65.1247 24.3843L64.464 26.272L63.8033 28.1597C70.646 30.5546 75.9589 31.856 79.568 31.856V29.856ZM64.464 26.272L65.1397 24.3896C58.506 22.0082 53.507 20.688 50.384 20.688V22.688V24.688C52.7223 24.688 57.11 25.757 63.7883 28.1544L64.464 26.272ZM50.384 22.688V20.688C46.3957 20.688 43.0265 22.216 40.4246 25.2182L41.936 26.528L43.4474 27.8379C45.2829 25.72 47.5456 24.688 50.384 24.688V22.688ZM41.936 26.528L40.4175 25.2264C38.0316 28.01 36.864 31.3848 36.864 35.232H38.864H40.864C40.864 32.2525 41.7444 29.8247 43.4545 27.8296L41.936 26.528ZM38.864 35.232H36.864C36.864 42.971 40.5839 49.65 47.6035 55.2296L48.848 53.664L50.0925 52.0984C43.8001 47.0967 40.864 41.4877 40.864 35.232H38.864ZM48.848 53.664L47.4773 52.2076L43.1253 56.3036L44.496 57.76L45.8667 59.2164L50.2187 55.1204L48.848 53.664ZM44.496 57.76L45.8649 56.3019C37.7288 48.664 33.952 41.2187 33.952 33.952H31.952H29.952C29.952 42.728 34.5378 51.1547 43.1271 59.2182L44.496 57.76ZM172.052 195.488H174.052C174.052 184.579 177.855 175.361 185.498 167.718L184.084 166.304L182.67 164.89C174.27 173.29 170.052 183.528 170.052 195.488H172.052ZM184.084 166.304L185.498 167.718C192.543 160.673 201.677 155.711 212.985 152.884L212.5 150.944L212.015 149.004C200.113 151.979 190.302 157.258 182.67 164.89L184.084 166.304ZM212.5 150.944H214.5V98.464H212.5H210.5V150.944H212.5ZM212.5 98.464L213.914 97.0498C211.778 94.9133 209.335 93.648 206.612 93.648V95.648V97.648C207.985 97.648 209.468 98.26 211.086 99.8782L212.5 98.464ZM206.612 95.648V93.648C202.798 93.648 199.602 94.7834 197.409 97.3598C195.269 99.8744 194.372 103.433 194.372 107.68H196.372H198.372C198.372 103.906 199.182 101.448 200.455 99.9522C201.676 98.5179 203.599 97.648 206.612 97.648V95.648ZM196.372 107.68H194.372C194.372 109.598 194.996 111.928 196.051 114.567L197.908 113.824L199.765 113.081C198.772 110.6 198.372 108.834 198.372 107.68H196.372ZM197.908 113.824L197.179 111.961L191.291 114.266L192.02 116.128L192.749 117.99L198.637 115.686L197.908 113.824ZM192.02 116.128L193.906 115.462C191.913 109.815 190.948 104.753 190.948 100.256H188.948H186.948C186.948 105.316 188.031 110.836 190.134 116.794L192.02 116.128ZM188.948 100.256H190.948C190.948 93.6303 192.796 89.0095 196.167 86.005C199.581 82.9614 204.905 81.264 212.5 81.264V79.264V77.264C204.394 77.264 197.941 79.0652 193.505 83.019C189.025 87.0118 186.948 92.887 186.948 100.256H188.948ZM212.5 79.264H214.5V47.008H212.5H210.5V79.264H212.5ZM212.5 47.008H214.5C214.5 40.2648 213.329 34.8506 210.681 31.0757C207.943 27.1712 203.824 25.296 198.676 25.296V27.296V29.296C202.744 29.296 205.537 30.7061 207.407 33.3724C209.367 36.1681 210.5 40.6098 210.5 47.008H212.5ZM198.676 27.296V25.296C192.526 25.296 187.364 28.0292 183.279 33.2283L184.852 34.464L186.425 35.6996C189.849 31.3415 193.903 29.296 198.676 29.296V27.296ZM184.852 34.464L183.267 33.2446C179.632 37.9703 177.448 43.3441 176.723 49.3273L178.708 49.568L180.693 49.8087C181.334 44.5279 183.246 39.8323 186.437 35.6834L184.852 34.464ZM178.708 49.568L179.171 47.6224L173.795 46.3424L173.332 48.288L172.869 50.2336L178.245 51.5136L178.708 49.568ZM173.332 48.288L175.32 48.5089C176.49 37.9727 179.241 28.8488 183.53 21.0961L181.78 20.128L180.03 19.1599C175.444 27.4498 172.563 37.0993 171.344 48.0672L173.332 48.288ZM181.78 20.128L183.54 21.0779C189.134 10.7124 195.997 6 204.052 6V4V2C194.017 2 186.031 8.03959 180.02 19.1781L181.78 20.128ZM204.052 4V6C208.714 6 212.986 7.46491 216.922 10.4563L218.132 8.86401L219.342 7.27169C214.745 3.77777 209.63 2 204.052 2V4ZM218.132 8.86401L216.923 10.4569C225.437 16.9217 229.956 28.2094 229.956 44.96H231.956H233.956C233.956 27.5773 229.259 14.8009 219.341 7.27112L218.132 8.86401ZM231.956 44.96L233.184 46.5387L244.704 37.5787L243.476 36L242.248 34.4213L230.728 43.3813L231.956 44.96ZM243.476 36H245.476V7.07202H243.476H241.476V36H243.476ZM243.476 7.07202V9.07202H249.62V7.07202V5.07202H243.476V7.07202ZM249.62 7.07202H247.62V31.904H249.62H251.62V7.07202H249.62ZM249.62 31.904L250.783 33.5307L289.439 5.88272L288.276 4.25598L287.113 2.62924L248.456 30.2773L249.62 31.904ZM288.276 4.25598L286.87 5.67884L307.862 26.4149L309.268 24.992L310.674 23.5691L289.682 2.83312L288.276 4.25598ZM309.268 24.992L310.399 26.6415L319.359 20.4975L318.228 18.848L317.097 17.1986L308.137 23.3425L309.268 24.992ZM318.228 18.848L316.59 19.9949L320.174 25.1149L321.812 23.968L323.45 22.8211L319.866 17.7011L318.228 18.848ZM321.812 23.968L320.64 22.3473L304 34.3793L305.172 36L306.344 37.6207L322.984 25.5887L321.812 23.968ZM305.172 36L303.228 35.5298L273.417 158.782L275.361 159.252L277.305 159.722L307.116 36.4702L305.172 36ZM275.361 159.252L273.429 158.735L271.752 165.003L273.684 165.52L275.616 166.037L277.293 159.769L275.361 159.252ZM273.684 165.52C273.567 163.523 273.566 163.523 273.565 163.524C273.564 163.524 273.563 163.524 273.562 163.524C273.561 163.524 273.559 163.524 273.557 163.524C273.552 163.524 273.547 163.525 273.541 163.525C273.529 163.526 273.514 163.527 273.495 163.528C273.458 163.531 273.409 163.535 273.346 163.541C273.222 163.552 273.048 163.571 272.826 163.599C272.384 163.655 271.754 163.752 270.96 163.916C269.373 164.243 267.132 164.837 264.433 165.909C259.029 168.057 251.812 172.116 244.349 179.754L245.78 181.152L247.211 182.55C254.255 175.34 260.99 171.582 265.911 169.627C268.374 168.647 270.389 168.117 271.768 167.833C272.457 167.691 272.987 167.611 273.333 167.567C273.507 167.544 273.635 167.531 273.713 167.524C273.753 167.52 273.78 167.518 273.795 167.517C273.802 167.516 273.806 167.516 273.807 167.516C273.808 167.516 273.808 167.516 273.807 167.516C273.806 167.516 273.805 167.516 273.804 167.516C273.804 167.516 273.803 167.516 273.803 167.516C273.802 167.516 273.801 167.517 273.684 165.52ZM245.78 181.152L247.048 179.605C238.111 172.277 227.15 168.656 214.292 168.656V170.656V172.656C226.351 172.656 236.382 176.032 244.512 182.699L245.78 181.152ZM214.292 170.656V168.656C205.035 168.656 196.778 171.156 189.593 176.186L190.74 177.824L191.887 179.462C198.355 174.935 205.799 172.656 214.292 172.656V170.656ZM190.74 177.824L189.564 176.207C181.59 182.006 177.476 189.58 177.476 198.816H179.476H181.476C181.476 190.985 184.871 184.565 191.916 179.441L190.74 177.824ZM179.476 198.816H177.476C177.476 207.082 180.715 214.403 187.022 220.71L188.436 219.296L189.85 217.882C184.211 212.242 181.476 205.91 181.476 198.816H179.476ZM188.436 219.296L187.022 220.71C193.487 227.176 200.89 230.512 209.172 230.512V228.512V226.512C202.094 226.512 195.673 223.705 189.85 217.882L188.436 219.296ZM209.172 228.512H207.172V234.4H209.172H211.172V228.512H209.172ZM209.172 234.4V232.4C198.599 232.4 190.201 228.768 183.787 221.551L182.292 222.88L180.797 224.209C188.036 232.353 197.559 236.4 209.172 236.4V234.4ZM182.292 222.88L183.756 221.518C177.306 214.584 174.052 205.955 174.052 195.488H172.052H170.052C170.052 206.867 173.624 216.499 180.828 224.242L182.292 222.88ZM243.476 154.016H245.476V43.936H243.476H241.476V154.016H243.476ZM243.476 43.936L242.293 42.3232L230.773 50.7712L231.956 52.384L233.139 53.9968L244.659 45.5488L243.476 43.936ZM231.956 52.384H229.956V150.688H231.956H233.956V52.384H231.956ZM231.956 150.688L231.627 152.661C232.466 152.801 233.777 153.176 235.624 153.848L236.308 151.968L236.991 150.088C235.084 149.395 233.494 148.917 232.285 148.715L231.956 150.688ZM236.308 151.968L235.782 153.898C237.641 154.405 240.017 155.083 242.912 155.935L243.476 154.016L244.04 152.097C241.132 151.242 238.729 150.555 236.834 150.038L236.308 151.968ZM260.361 159.752L262.322 160.146L279.82 73.1464L277.859 72.752L275.899 72.3577L258.4 159.358L260.361 159.752ZM277.859 72.752L278.118 74.7352C279.551 74.5483 280.539 74.4273 281.163 74.3579C281.479 74.3228 281.683 74.3029 281.8 74.2939C281.866 74.2888 281.869 74.29 281.838 74.2903C281.837 74.2904 281.746 74.2927 281.622 74.2782C281.582 74.2735 281.388 74.2521 281.155 74.1637C281.045 74.122 280.777 74.0115 280.51 73.765C280.205 73.4833 279.836 72.9493 279.869 72.2072C279.898 71.5539 280.228 71.1281 280.382 70.9581C280.55 70.7715 280.716 70.6603 280.793 70.6111C280.954 70.5092 281.092 70.4556 281.129 70.441C281.228 70.4027 281.302 70.3839 281.305 70.3832C281.331 70.3764 281.328 70.3782 281.272 70.3894C281.172 70.4093 281.003 70.4394 280.764 70.4789C280.291 70.5567 279.606 70.6605 278.781 70.7772C275.424 71.2518 270.107 71.888 267.54 71.888V73.888V75.888C270.434 75.888 276.028 75.2062 279.341 74.7378C280.183 74.6187 280.9 74.5102 281.414 74.4257C281.667 74.3839 281.887 74.3453 282.053 74.3123C282.13 74.297 282.229 74.2762 282.324 74.2513C282.361 74.2415 282.462 74.2147 282.578 74.1695C282.624 74.1514 282.769 74.0947 282.934 73.99C283.014 73.9394 283.181 73.8268 283.351 73.639C283.505 73.4676 283.836 73.0407 283.865 72.3862C283.898 71.643 283.529 71.1079 283.223 70.8252C282.954 70.5777 282.686 70.4664 282.573 70.4238C282.336 70.3337 282.135 70.311 282.086 70.3053C281.945 70.2887 281.826 70.2902 281.788 70.2906C281.685 70.2919 281.577 70.2992 281.492 70.3058C281.306 70.3201 281.048 70.346 280.721 70.3824C280.06 70.456 279.043 70.5807 277.601 70.7688L277.859 72.752ZM267.54 73.888V71.888C261.683 71.888 255.984 70.6696 250.427 68.2181L249.62 70.048L248.813 71.8778C254.861 74.5463 261.109 75.888 267.54 75.888V73.888ZM267.54 67.744V69.744C270.858 69.744 274.937 69.2259 277.696 68.7855C279.076 68.5653 280.189 68.3543 280.756 68.2216C280.881 68.1923 281.058 68.1491 281.213 68.096C281.256 68.0814 281.334 68.0537 281.424 68.0125C281.442 68.0045 281.745 67.8778 282.026 67.5961C282.152 67.4702 282.588 67.0063 282.612 66.2409C282.64 65.3151 282.069 64.7529 281.748 64.5313C281.457 64.3296 281.184 64.2574 281.091 64.234C280.966 64.2029 280.864 64.1898 280.805 64.1836C280.52 64.1535 280.215 64.1914 280.157 64.1976C280.002 64.2141 279.808 64.2393 279.578 64.2721L279.861 66.252L280.144 68.2319C280.352 68.2022 280.493 68.1844 280.58 68.1752C280.764 68.1556 280.608 68.185 280.385 68.1615C280.335 68.1562 280.239 68.1442 280.12 68.1143C280.031 68.0923 279.763 68.0215 279.474 67.8216C279.156 67.6017 278.585 67.0416 278.614 66.118C278.637 65.3548 279.072 64.8932 279.195 64.77C279.471 64.4936 279.764 64.373 279.767 64.372C279.842 64.3379 279.899 64.3181 279.916 64.312C279.97 64.2935 279.968 64.2979 279.845 64.3268C279.417 64.4269 278.414 64.6202 277.066 64.8355C274.368 65.2662 270.537 65.744 267.54 65.744V67.744ZM279.861 66.252L281.823 66.6418L288.19 34.5978L286.228 34.208L284.266 33.8182L277.899 65.8622L279.861 66.252ZM286.228 34.208L287.671 32.8236L275.639 20.2795L274.196 21.664L272.753 23.0485L284.785 35.5925L286.228 34.208ZM274.196 21.664L273.018 20.048L248.442 37.968L249.62 39.584L250.798 41.2L275.374 23.28L274.196 21.664ZM249.62 39.584H247.62V63.392H249.62H251.62V39.584H249.62ZM249.62 63.392L248.658 65.1456C254.273 68.2248 260.583 69.744 267.54 69.744V67.744V65.744C261.185 65.744 255.548 64.3618 250.582 61.6383L249.62 63.392ZM249.62 156.064L248.971 157.956L259.711 161.644L260.361 159.752L261.01 157.86L250.269 154.172L249.62 156.064ZM249.62 70.048H247.62V156.064H249.62H251.62V70.048H249.62Z" fill="#292524" mask="url(#path-1-outside-1_18_100)"/>
</svg>
