<svg width="384" height="384" viewBox="0 0 384 384" fill="none" xmlns="http://www.w3.org/2000/svg">
<rect width="384" height="384" fill="#292524"/>
<mask id="path-2-outside-1_26_112" maskUnits="userSpaceOnUse" x="30" y="73" width="325" height="238" fill="black">
<rect fill="white" x="30" y="73" width="325" height="238"/>
<path d="M79.616 307.4C65.4507 307.4 54.016 302.621 45.312 293.064C36.4373 283.677 32 271.901 32 257.736C32 246.301 35.4987 235.379 42.496 224.968C49.8347 213.704 59.3067 208.072 70.912 208.072C78.7627 208.072 88.576 213.192 100.352 223.432C112.299 233.501 119.552 238.536 122.112 238.536C125.355 238.536 128.256 237 130.816 233.928V110.536L171.776 77C176.555 85.704 181.419 90.056 186.368 90.056C189.781 90.056 195.84 86.728 204.544 80.072L208.128 84.936C192.939 97.9066 182.357 104.392 176.384 104.392C176.384 104.392 175.787 104.307 174.592 104.136C173.397 103.965 171.605 103.709 169.216 103.368V153.8H190.72L169.216 170.952V293.064L171.776 296.648L158.976 307.4L152.064 298.696L163.328 289.736V173H150.272V227.784C147.029 230.515 143.787 233.16 140.544 235.72C137.472 238.28 134.315 240.925 131.072 243.656C123.051 249.288 115.456 252.104 108.288 252.104C102.656 252.104 94.3787 248.179 83.456 240.328C72.8747 232.477 65.7067 228.552 61.952 228.552C54.784 228.552 48.896 232.136 44.288 239.304C40.5333 245.107 38.656 252.019 38.656 260.04C38.656 271.645 42.6667 281.459 50.688 289.48C58.5387 297.672 68.2667 301.768 79.872 301.768C83.1147 301.768 86.3573 301.427 89.6 300.744V306.12C85.8453 306.973 82.5173 307.4 79.616 307.4ZM163.328 153.8V101.832C160.427 100.467 158.037 98.9307 156.16 97.224L150.272 101.832V153.8H163.328ZM100.608 211.656V171.464C98.7307 169.928 96.8533 169.16 94.976 169.16C92.0747 169.16 89.6 170.355 87.552 172.744C85.6747 174.963 84.736 177.608 84.736 180.68C84.736 182.216 85.248 184.264 86.272 186.824L79.872 189.384C78.1653 184.093 77.312 179.059 77.312 174.28C77.312 159.603 85.0773 152.264 100.608 152.264V124.872L120.064 109.256L123.904 113.864L120.064 116.936V203.464L100.608 219.336L97.024 214.472L100.608 211.656ZM61.952 106.952C61.952 99.9547 64.6827 93.2134 70.144 86.728C75.6053 80.2427 81.92 77 89.088 77C93.5253 77 99.84 78.3653 108.032 81.096C117.76 84.3387 122.965 85.96 123.648 85.96C127.915 85.96 132.693 83.8267 137.984 79.56L141.568 83.656C136.789 87.4107 133.205 90.312 130.816 92.36C128.427 94.2373 127.061 95.3467 126.72 95.688C120.235 100.467 114.517 102.856 109.568 102.856C106.325 102.856 101.291 101.661 94.464 99.272C87.808 96.8826 83.1147 95.688 80.384 95.688C76.9707 95.688 74.1547 96.968 71.936 99.528C69.888 101.917 68.864 104.819 68.864 108.232C68.864 115.229 72.192 121.373 78.848 126.664L74.496 130.76C66.1333 122.909 61.952 114.973 61.952 106.952Z"/>
<path d="M202.052 268.488C202.052 257.053 206.063 247.325 214.084 239.304C221.423 231.965 230.895 226.845 242.5 223.944V171.464C240.623 169.587 238.66 168.648 236.612 168.648C229.785 168.648 226.372 172.659 226.372 180.68C226.372 182.216 226.884 184.264 227.908 186.824L222.02 189.128C219.972 183.325 218.948 178.035 218.948 173.256C218.948 159.261 226.799 152.264 242.5 152.264V120.008C242.5 106.867 237.892 100.296 228.676 100.296C223.215 100.296 218.607 102.685 214.852 107.464C211.439 111.901 209.391 116.936 208.708 122.568L203.332 121.288C204.527 110.536 207.343 101.149 211.78 93.128C217.583 82.376 225.007 77 234.052 77C239.172 77 243.865 78.6213 248.132 81.864C257.348 88.8613 261.956 100.893 261.956 117.96L273.476 109V80.072H279.62V104.904L318.276 77.256L339.268 97.992L348.228 91.848L351.812 96.968L335.172 109L305.361 232.252L303.684 238.52C303.684 238.52 290.287 239.304 275.78 254.152C267.247 247.155 256.751 243.656 244.292 243.656C235.417 243.656 227.567 246.045 220.74 250.824C213.231 256.285 209.476 263.283 209.476 271.816C209.476 279.496 212.463 286.323 218.436 292.296C224.58 298.44 231.492 301.512 239.172 301.512V307.4C228.079 307.4 219.119 303.56 212.292 295.88C205.465 288.541 202.052 279.411 202.052 268.488ZM273.476 227.016V116.936L261.956 125.384V223.688C262.98 223.859 264.431 224.285 266.308 224.968C268.185 225.48 270.575 226.163 273.476 227.016ZM279.62 229.064L290.361 232.752L307.859 145.752C319.361 144.252 303.001 146.888 297.54 146.888C291.396 146.888 285.423 145.608 279.62 143.048V229.064ZM297.54 140.744C303.855 140.744 313.361 138.752 309.861 139.252L316.228 107.208L304.196 94.664L279.62 112.584V136.392C284.911 139.293 290.884 140.744 297.54 140.744Z"/>
</mask>
<path d="M79.616 307.4C65.4507 307.4 54.016 302.621 45.312 293.064C36.4373 283.677 32 271.901 32 257.736C32 246.301 35.4987 235.379 42.496 224.968C49.8347 213.704 59.3067 208.072 70.912 208.072C78.7627 208.072 88.576 213.192 100.352 223.432C112.299 233.501 119.552 238.536 122.112 238.536C125.355 238.536 128.256 237 130.816 233.928V110.536L171.776 77C176.555 85.704 181.419 90.056 186.368 90.056C189.781 90.056 195.84 86.728 204.544 80.072L208.128 84.936C192.939 97.9066 182.357 104.392 176.384 104.392C176.384 104.392 175.787 104.307 174.592 104.136C173.397 103.965 171.605 103.709 169.216 103.368V153.8H190.72L169.216 170.952V293.064L171.776 296.648L158.976 307.4L152.064 298.696L163.328 289.736V173H150.272V227.784C147.029 230.515 143.787 233.16 140.544 235.72C137.472 238.28 134.315 240.925 131.072 243.656C123.051 249.288 115.456 252.104 108.288 252.104C102.656 252.104 94.3787 248.179 83.456 240.328C72.8747 232.477 65.7067 228.552 61.952 228.552C54.784 228.552 48.896 232.136 44.288 239.304C40.5333 245.107 38.656 252.019 38.656 260.04C38.656 271.645 42.6667 281.459 50.688 289.48C58.5387 297.672 68.2667 301.768 79.872 301.768C83.1147 301.768 86.3573 301.427 89.6 300.744V306.12C85.8453 306.973 82.5173 307.4 79.616 307.4ZM163.328 153.8V101.832C160.427 100.467 158.037 98.9307 156.16 97.224L150.272 101.832V153.8H163.328ZM100.608 211.656V171.464C98.7307 169.928 96.8533 169.16 94.976 169.16C92.0747 169.16 89.6 170.355 87.552 172.744C85.6747 174.963 84.736 177.608 84.736 180.68C84.736 182.216 85.248 184.264 86.272 186.824L79.872 189.384C78.1653 184.093 77.312 179.059 77.312 174.28C77.312 159.603 85.0773 152.264 100.608 152.264V124.872L120.064 109.256L123.904 113.864L120.064 116.936V203.464L100.608 219.336L97.024 214.472L100.608 211.656ZM61.952 106.952C61.952 99.9547 64.6827 93.2134 70.144 86.728C75.6053 80.2427 81.92 77 89.088 77C93.5253 77 99.84 78.3653 108.032 81.096C117.76 84.3387 122.965 85.96 123.648 85.96C127.915 85.96 132.693 83.8267 137.984 79.56L141.568 83.656C136.789 87.4107 133.205 90.312 130.816 92.36C128.427 94.2373 127.061 95.3467 126.72 95.688C120.235 100.467 114.517 102.856 109.568 102.856C106.325 102.856 101.291 101.661 94.464 99.272C87.808 96.8826 83.1147 95.688 80.384 95.688C76.9707 95.688 74.1547 96.968 71.936 99.528C69.888 101.917 68.864 104.819 68.864 108.232C68.864 115.229 72.192 121.373 78.848 126.664L74.496 130.76C66.1333 122.909 61.952 114.973 61.952 106.952Z" fill="#FFEDD4"/>
<path d="M202.052 268.488C202.052 257.053 206.063 247.325 214.084 239.304C221.423 231.965 230.895 226.845 242.5 223.944V171.464C240.623 169.587 238.66 168.648 236.612 168.648C229.785 168.648 226.372 172.659 226.372 180.68C226.372 182.216 226.884 184.264 227.908 186.824L222.02 189.128C219.972 183.325 218.948 178.035 218.948 173.256C218.948 159.261 226.799 152.264 242.5 152.264V120.008C242.5 106.867 237.892 100.296 228.676 100.296C223.215 100.296 218.607 102.685 214.852 107.464C211.439 111.901 209.391 116.936 208.708 122.568L203.332 121.288C204.527 110.536 207.343 101.149 211.78 93.128C217.583 82.376 225.007 77 234.052 77C239.172 77 243.865 78.6213 248.132 81.864C257.348 88.8613 261.956 100.893 261.956 117.96L273.476 109V80.072H279.62V104.904L318.276 77.256L339.268 97.992L348.228 91.848L351.812 96.968L335.172 109L305.361 232.252L303.684 238.52C303.684 238.52 290.287 239.304 275.78 254.152C267.247 247.155 256.751 243.656 244.292 243.656C235.417 243.656 227.567 246.045 220.74 250.824C213.231 256.285 209.476 263.283 209.476 271.816C209.476 279.496 212.463 286.323 218.436 292.296C224.58 298.44 231.492 301.512 239.172 301.512V307.4C228.079 307.4 219.119 303.56 212.292 295.88C205.465 288.541 202.052 279.411 202.052 268.488ZM273.476 227.016V116.936L261.956 125.384V223.688C262.98 223.859 264.431 224.285 266.308 224.968C268.185 225.48 270.575 226.163 273.476 227.016ZM279.62 229.064L290.361 232.752L307.859 145.752C319.361 144.252 303.001 146.888 297.54 146.888C291.396 146.888 285.423 145.608 279.62 143.048V229.064ZM297.54 140.744C303.855 140.744 313.361 138.752 309.861 139.252L316.228 107.208L304.196 94.664L279.62 112.584V136.392C284.911 139.293 290.884 140.744 297.54 140.744Z" fill="#FFEDD4"/>
<path d="M290.361 232.752L290.142 233.728L291.135 233.95L291.34 232.954L290.361 232.752ZM290.361 232.752L291.34 232.954L317.207 107.41L316.228 107.208L315.249 107.006L289.382 232.55L290.361 232.752ZM279.62 229.064L279.185 229.965C281.726 231.191 284.466 232.13 286.558 232.761C287.607 233.078 288.499 233.318 289.13 233.48C289.446 233.561 289.697 233.623 289.87 233.664C289.956 233.685 290.023 233.7 290.069 233.711C290.092 233.716 290.11 233.72 290.122 233.723C290.128 233.725 290.133 233.726 290.136 233.726C290.138 233.727 290.139 233.727 290.14 233.727C290.141 233.727 290.141 233.728 290.141 233.728C290.142 233.728 290.142 233.728 290.142 233.728C290.142 233.728 290.142 233.728 290.361 232.752C290.58 231.776 290.58 231.776 290.58 231.776C290.58 231.776 290.58 231.776 290.58 231.776C290.58 231.776 290.58 231.776 290.58 231.776C290.579 231.776 290.578 231.776 290.577 231.776C290.575 231.775 290.571 231.774 290.566 231.773C290.556 231.771 290.541 231.767 290.52 231.763C290.479 231.753 290.417 231.738 290.335 231.719C290.172 231.68 289.932 231.621 289.627 231.543C289.018 231.387 288.153 231.154 287.135 230.847C285.094 230.231 282.464 229.326 280.055 228.163L279.62 229.064ZM45.312 293.064L46.7907 291.717L46.7781 291.704L46.7653 291.69L45.312 293.064ZM42.496 224.968L44.1559 226.084L44.1639 226.072L44.1717 226.06L42.496 224.968ZM100.352 223.432L99.0396 224.941L99.0513 224.951L99.063 224.961L100.352 223.432ZM130.816 233.928L132.352 235.208L132.816 234.652V233.928H130.816ZM130.816 110.536L129.549 108.989L128.816 109.589V110.536H130.816ZM171.776 77L173.529 76.0375L172.371 73.928L170.509 75.4525L171.776 77ZM204.544 80.072L206.154 78.8856L204.946 77.2466L203.329 78.4833L204.544 80.072ZM208.128 84.936L209.427 86.4569L210.842 85.2481L209.738 83.7496L208.128 84.936ZM176.384 104.392L176.101 106.372L176.242 106.392H176.384V104.392ZM174.592 104.136L174.875 102.156L174.875 102.156L174.592 104.136ZM169.216 103.368L169.499 101.388L167.216 101.062V103.368H169.216ZM169.216 153.8H167.216V155.8H169.216V153.8ZM190.72 153.8L191.967 155.364L196.435 151.8H190.72V153.8ZM169.216 170.952L167.969 169.388L167.216 169.989V170.952H169.216ZM169.216 293.064H167.216V293.705L167.589 294.227L169.216 293.064ZM171.776 296.648L173.062 298.179L174.478 296.99L173.403 295.486L171.776 296.648ZM158.976 307.4L157.41 308.644L158.688 310.254L160.262 308.932L158.976 307.4ZM152.064 298.696L150.819 297.131L149.255 298.375L150.498 299.94L152.064 298.696ZM163.328 289.736L164.573 291.301L165.328 290.701V289.736H163.328ZM163.328 173H165.328V171H163.328V173ZM150.272 173V171H148.272V173H150.272ZM150.272 227.784L151.56 229.314L152.272 228.714V227.784H150.272ZM140.544 235.72L139.305 234.15L139.284 234.167L139.264 234.184L140.544 235.72ZM131.072 243.656L132.221 245.293L132.293 245.242L132.36 245.186L131.072 243.656ZM83.456 240.328L82.2643 241.934L82.2764 241.943L82.2887 241.952L83.456 240.328ZM44.288 239.304L45.9671 240.391L45.9704 240.386L44.288 239.304ZM50.688 289.48L52.132 288.096L52.1172 288.081L52.1022 288.066L50.688 289.48ZM89.6 300.744H91.6V298.279L89.188 298.787L89.6 300.744ZM89.6 306.12L90.0432 308.07L91.6 307.717V306.12H89.6ZM163.328 153.8V155.8H165.328V153.8H163.328ZM163.328 101.832H165.328V100.563L164.18 100.022L163.328 101.832ZM156.16 97.224L157.505 95.7441L156.257 94.6088L154.927 95.649L156.16 97.224ZM150.272 101.832L149.039 100.257L148.272 100.858V101.832H150.272ZM150.272 153.8H148.272V155.8H150.272V153.8ZM100.608 211.656L101.844 213.229L102.608 212.628V211.656H100.608ZM100.608 171.464H102.608V170.516L101.874 169.916L100.608 171.464ZM87.552 172.744L86.0335 171.442L86.0252 171.452L87.552 172.744ZM86.272 186.824L87.0148 188.681L88.8717 187.938L88.129 186.081L86.272 186.824ZM79.872 189.384L77.9686 189.998L78.6261 192.036L80.6148 191.241L79.872 189.384ZM100.608 152.264V154.264H102.608V152.264H100.608ZM100.608 124.872L99.3561 123.312L98.608 123.913V124.872H100.608ZM120.064 109.256L121.6 107.976L120.343 106.467L118.812 107.696L120.064 109.256ZM123.904 113.864L125.153 115.426L126.747 114.151L125.44 112.584L123.904 113.864ZM120.064 116.936L118.815 115.374L118.064 115.975V116.936H120.064ZM120.064 203.464L121.328 205.014L122.064 204.414V203.464H120.064ZM100.608 219.336L98.9979 220.522L100.244 222.214L101.872 220.886L100.608 219.336ZM97.024 214.472L95.7884 212.899L94.2636 214.097L95.4139 215.658L97.024 214.472ZM70.144 86.728L71.6738 88.0163L71.6738 88.0163L70.144 86.728ZM108.032 81.096L107.4 82.9934L107.4 82.9934L108.032 81.096ZM137.984 79.56L139.489 78.243L138.224 76.7971L136.729 78.0032L137.984 79.56ZM141.568 83.656L142.804 85.2286L144.462 83.9259L143.073 82.339L141.568 83.656ZM130.816 92.36L132.052 93.9326L132.085 93.9063L132.118 93.8785L130.816 92.36ZM126.72 95.688L127.906 97.2981L128.028 97.2087L128.134 97.1022L126.72 95.688ZM94.464 99.272L93.7883 101.154L93.7958 101.157L93.8033 101.16L94.464 99.272ZM71.936 99.528L70.4246 98.2181L70.4175 98.2264L71.936 99.528ZM78.848 126.664L80.2187 128.12L81.9017 126.536L80.0925 125.098L78.848 126.664ZM74.496 130.76L73.1271 132.218L74.4978 133.505L75.8667 132.216L74.496 130.76ZM214.084 239.304L215.498 240.718L215.498 240.718L214.084 239.304ZM242.5 223.944L242.985 225.884L244.5 225.506V223.944H242.5ZM242.5 171.464H244.5V170.636L243.914 170.05L242.5 171.464ZM227.908 186.824L228.637 188.686L230.513 187.952L229.765 186.081L227.908 186.824ZM222.02 189.128L220.134 189.794L220.822 191.744L222.749 190.99L222.02 189.128ZM242.5 152.264V154.264H244.5V152.264H242.5ZM214.852 107.464L213.279 106.228L213.273 106.236L213.267 106.245L214.852 107.464ZM208.708 122.568L208.245 124.514L210.424 125.032L210.693 122.809L208.708 122.568ZM203.332 121.288L201.344 121.067L201.149 122.824L202.869 123.234L203.332 121.288ZM211.78 93.128L213.53 94.0961L213.535 94.087L213.54 94.0779L211.78 93.128ZM248.132 81.864L246.922 83.4563L246.923 83.4569L248.132 81.864ZM261.956 117.96H259.956V122.049L263.184 119.539L261.956 117.96ZM273.476 109L274.704 110.579L275.476 109.978V109H273.476ZM273.476 80.072V78.072H271.476V80.072H273.476ZM279.62 80.072H281.62V78.072H279.62V80.072ZM279.62 104.904H277.62V108.793L280.783 106.531L279.62 104.904ZM318.276 77.256L319.682 75.8331L318.483 74.6491L317.113 75.6292L318.276 77.256ZM339.268 97.992L337.862 99.4149L339.037 100.575L340.399 99.6415L339.268 97.992ZM348.228 91.848L349.866 90.7011L348.731 89.0784L347.097 90.1986L348.228 91.848ZM351.812 96.968L352.984 98.5887L354.58 97.4346L353.45 95.8211L351.812 96.968ZM335.172 109L334 107.379L333.402 107.812L333.228 108.53L335.172 109ZM305.361 232.252L307.293 232.769L307.299 232.746L307.305 232.722L305.361 232.252ZM303.684 238.52L303.801 240.517L305.243 240.432L305.616 239.037L303.684 238.52ZM275.78 254.152L274.512 255.699L275.929 256.861L277.211 255.55L275.78 254.152ZM220.74 250.824L219.593 249.186L219.578 249.196L219.564 249.207L220.74 250.824ZM218.436 292.296L217.022 293.71L217.022 293.71L218.436 292.296ZM239.172 301.512H241.172V299.512H239.172V301.512ZM239.172 307.4V309.4H241.172V307.4H239.172ZM212.292 295.88L213.787 294.551L213.772 294.534L213.756 294.518L212.292 295.88ZM273.476 227.016L272.912 228.935L275.476 229.689V227.016H273.476ZM273.476 116.936H275.476V112.989L272.293 115.323L273.476 116.936ZM261.956 125.384L260.773 123.771L259.956 124.37V125.384H261.956ZM261.956 223.688H259.956V225.382L261.627 225.661L261.956 223.688ZM266.308 224.968L265.624 226.848L265.702 226.876L265.782 226.898L266.308 224.968ZM290.361 232.752L289.711 234.644L291.871 235.385L292.322 233.146L290.361 232.752ZM316.228 107.208L318.19 107.598L318.393 106.576L317.671 105.824L316.228 107.208ZM279.62 229.064H277.62V230.492L278.971 230.956L279.62 229.064ZM307.859 145.752L307.601 143.769L306.181 143.954L305.899 145.358L307.859 145.752ZM279.62 143.048L280.427 141.218L277.62 139.98V143.048H279.62ZM309.861 139.252L307.899 138.862L307.349 141.631L310.144 141.232L309.861 139.252ZM304.196 94.664L305.639 93.2795L304.43 92.0184L303.018 93.048L304.196 94.664ZM279.62 112.584L278.442 110.968L277.62 111.567V112.584H279.62ZM279.62 136.392H277.62V137.576L278.658 138.146L279.62 136.392ZM79.616 307.4V305.4C65.9533 305.4 55.077 300.816 46.7907 291.717L45.312 293.064L43.8333 294.411C52.9551 304.427 64.948 309.4 79.616 309.4V307.4ZM45.312 293.064L46.7653 291.69C38.277 282.712 34 271.444 34 257.736H32H30C30 272.359 34.5977 284.643 43.8587 294.438L45.312 293.064ZM32 257.736H34C34 246.737 37.3578 236.198 44.1559 226.084L42.496 224.968L40.8361 223.852C33.6395 234.559 30 245.866 30 257.736H32ZM42.496 224.968L44.1717 226.06C51.2095 215.258 60.099 210.072 70.912 210.072V208.072V206.072C58.5143 206.072 48.4598 212.15 40.8203 223.876L42.496 224.968ZM70.912 208.072V210.072C77.9885 210.072 87.3206 214.751 99.0396 224.941L100.352 223.432L101.664 221.923C89.8314 211.633 79.5368 206.072 70.912 206.072V208.072ZM100.352 223.432L99.063 224.961C105.054 230.011 109.909 233.833 113.612 236.403C115.46 237.686 117.061 238.685 118.399 239.371C119.654 240.015 120.957 240.536 122.112 240.536V238.536V236.536C122.113 236.536 122.102 236.536 122.077 236.533C122.053 236.531 122.017 236.525 121.969 236.516C121.872 236.496 121.741 236.462 121.571 236.405C121.227 236.289 120.782 236.098 120.225 235.813C119.109 235.24 117.671 234.351 115.892 233.117C112.342 230.652 107.597 226.923 101.641 221.903L100.352 223.432ZM122.112 238.536V240.536C126.085 240.536 129.509 238.62 132.352 235.208L130.816 233.928L129.28 232.648C127.003 235.38 124.625 236.536 122.112 236.536V238.536ZM130.816 233.928H132.816V110.536H130.816H128.816V233.928H130.816ZM130.816 110.536L132.083 112.083L173.043 78.5475L171.776 77L170.509 75.4525L129.549 108.989L130.816 110.536ZM171.776 77L170.023 77.9625C172.47 82.4205 175.01 85.8983 177.674 88.2825C180.354 90.6799 183.262 92.056 186.368 92.056V90.056V88.056C184.525 88.056 182.526 87.2561 180.342 85.3015C178.142 83.3337 175.86 80.2835 173.529 76.0375L171.776 77ZM186.368 90.056V92.056C188.609 92.056 191.355 91.0048 194.435 89.313C197.588 87.5811 201.368 85.0189 205.759 81.6607L204.544 80.072L203.329 78.4833C199.017 81.7812 195.415 84.2109 192.509 85.807C189.53 87.4432 187.54 88.056 186.368 88.056V90.056ZM204.544 80.072L202.934 81.2584L206.518 86.1224L208.128 84.936L209.738 83.7496L206.154 78.8856L204.544 80.072ZM208.128 84.936L206.829 83.4151C199.272 89.868 192.919 94.6575 187.755 97.8228C182.506 101.04 178.777 102.392 176.384 102.392V104.392V106.392C179.964 106.392 184.513 104.501 189.845 101.233C195.262 97.9132 201.794 92.9746 209.427 86.4569L208.128 84.936ZM176.384 104.392C176.667 102.412 176.667 102.412 176.667 102.412C176.667 102.412 176.667 102.412 176.667 102.412C176.667 102.412 176.667 102.412 176.667 102.412C176.667 102.412 176.667 102.412 176.667 102.412C176.666 102.412 176.666 102.412 176.665 102.412C176.664 102.412 176.662 102.411 176.66 102.411C176.655 102.41 176.648 102.409 176.639 102.408C176.62 102.405 176.592 102.401 176.555 102.396C176.48 102.385 176.368 102.369 176.219 102.348C175.92 102.305 175.472 102.241 174.875 102.156L174.592 104.136L174.309 106.116C174.906 106.201 175.354 106.265 175.653 106.308C175.802 106.329 175.914 106.345 175.989 106.356C176.026 106.361 176.054 106.365 176.073 106.368C176.082 106.369 176.089 106.37 176.094 106.371C176.096 106.371 176.098 106.371 176.099 106.372C176.1 106.372 176.1 106.372 176.101 106.372C176.101 106.372 176.101 106.372 176.101 106.372C176.101 106.372 176.101 106.372 176.101 106.372C176.101 106.372 176.101 106.372 176.101 106.372C176.101 106.372 176.101 106.372 176.384 104.392ZM174.592 104.136L174.875 102.156C174.278 102.071 173.531 101.964 172.635 101.836C171.739 101.708 170.694 101.559 169.499 101.388L169.216 103.368L168.933 105.348C170.128 105.519 171.173 105.668 172.069 105.796C172.965 105.924 173.712 106.031 174.309 106.116L174.592 104.136ZM169.216 103.368H167.216V153.8H169.216H171.216V103.368H169.216ZM169.216 153.8V155.8H190.72V153.8V151.8H169.216V153.8ZM190.72 153.8L189.473 152.236L167.969 169.388L169.216 170.952L170.463 172.516L191.967 155.364L190.72 153.8ZM169.216 170.952H167.216V293.064H169.216H171.216V170.952H169.216ZM169.216 293.064L167.589 294.227L170.149 297.811L171.776 296.648L173.403 295.486L170.843 291.902L169.216 293.064ZM171.776 296.648L170.49 295.117L157.69 305.869L158.976 307.4L160.262 308.932L173.062 298.179L171.776 296.648ZM158.976 307.4L160.542 306.156L153.63 297.452L152.064 298.696L150.498 299.94L157.41 308.644L158.976 307.4ZM152.064 298.696L153.309 300.261L164.573 291.301L163.328 289.736L162.083 288.171L150.819 297.131L152.064 298.696ZM163.328 289.736H165.328V173H163.328H161.328V289.736H163.328ZM163.328 173V171H150.272V173V175H163.328V173ZM150.272 173H148.272V227.784H150.272H152.272V173H150.272ZM150.272 227.784L148.984 226.254C145.757 228.972 142.53 231.604 139.305 234.15L140.544 235.72L141.783 237.29C145.043 234.716 148.302 232.058 151.56 229.314L150.272 227.784ZM140.544 235.72L139.264 234.184C136.189 236.746 133.029 239.393 129.784 242.126L131.072 243.656L132.36 245.186C135.6 242.457 138.755 239.814 141.824 237.256L140.544 235.72ZM131.072 243.656L129.923 242.019C122.117 247.5 114.918 250.104 108.288 250.104V252.104V254.104C115.994 254.104 123.984 251.076 132.221 245.293L131.072 243.656ZM108.288 252.104V250.104C105.898 250.104 102.732 249.259 98.713 247.353C94.7206 245.46 90.0277 242.588 84.6233 238.704L83.456 240.328L82.2887 241.952C87.8069 245.918 92.7141 248.935 96.999 250.967C101.257 252.986 105.046 254.104 108.288 254.104V252.104ZM83.456 240.328L84.6477 238.722C79.3221 234.771 74.8023 231.767 71.1046 229.742C67.496 227.766 64.3768 226.552 61.952 226.552V228.552V230.552C63.2818 230.552 65.624 231.301 69.1834 233.25C72.6537 235.151 77.0085 238.035 82.2643 241.934L83.456 240.328ZM61.952 228.552V226.552C53.9667 226.552 47.501 230.607 42.6056 238.223L44.288 239.304L45.9704 240.386C50.291 233.665 55.6013 230.552 61.952 230.552V228.552ZM44.288 239.304L42.6089 238.218C38.6128 244.393 36.656 251.696 36.656 260.04H38.656H40.656C40.656 252.341 42.4538 245.82 45.9671 240.391L44.288 239.304ZM38.656 260.04H36.656C36.656 272.162 40.8678 282.488 49.2738 290.894L50.688 289.48L52.1022 288.066C44.4655 280.429 40.656 271.129 40.656 260.04H38.656ZM50.688 289.48L49.244 290.864C57.4815 299.459 67.7355 303.768 79.872 303.768V301.768V299.768C68.7978 299.768 59.5958 295.885 52.132 288.096L50.688 289.48ZM79.872 301.768V303.768C83.2561 303.768 86.6368 303.412 90.012 302.701L89.6 300.744L89.188 298.787C86.0779 299.442 82.9732 299.768 79.872 299.768V301.768ZM89.6 300.744H87.6V306.12H89.6H91.6V300.744H89.6ZM89.6 306.12L89.1568 304.17C85.5033 305 82.3288 305.4 79.616 305.4V307.4V309.4C82.7058 309.4 86.1873 308.947 90.0432 308.07L89.6 306.12ZM163.328 153.8H165.328V101.832H163.328H161.328V153.8H163.328ZM163.328 101.832L164.18 100.022C161.413 98.7205 159.203 97.287 157.505 95.7441L156.16 97.224L154.815 98.7039C156.872 100.574 159.44 102.213 162.476 103.642L163.328 101.832ZM156.16 97.224L154.927 95.649L149.039 100.257L150.272 101.832L151.505 103.407L157.393 98.799L156.16 97.224ZM150.272 101.832H148.272V153.8H150.272H152.272V101.832H150.272ZM150.272 153.8V155.8H163.328V153.8V151.8H150.272V153.8ZM100.608 211.656H102.608V171.464H100.608H98.608V211.656H100.608ZM100.608 171.464L101.874 169.916C99.7457 168.174 97.4355 167.16 94.976 167.16V169.16V171.16C96.2712 171.16 97.7156 171.682 99.3415 173.012L100.608 171.464ZM94.976 169.16V167.16C91.4371 167.16 88.425 168.652 86.0335 171.442L87.552 172.744L89.0705 174.046C90.775 172.057 92.7122 171.16 94.976 171.16V169.16ZM87.552 172.744L86.0252 171.452C83.824 174.054 82.736 177.164 82.736 180.68H84.736H86.736C86.736 178.052 87.5254 175.872 89.0788 174.036L87.552 172.744ZM84.736 180.68H82.736C82.736 182.598 83.3596 184.928 84.4151 187.567L86.272 186.824L88.129 186.081C87.1364 183.6 86.736 181.834 86.736 180.68H84.736ZM86.272 186.824L85.5292 184.967L79.1292 187.527L79.872 189.384L80.6148 191.241L87.0148 188.681L86.272 186.824ZM79.872 189.384L81.7754 188.77C80.1225 183.646 79.312 178.819 79.312 174.28H77.312H75.312C75.312 179.298 76.2081 184.541 77.9686 189.998L79.872 189.384ZM77.312 174.28H79.312C79.312 167.279 81.1584 162.389 84.5097 159.222C87.8822 156.034 93.1237 154.264 100.608 154.264V152.264V150.264C92.5617 150.264 86.1551 152.163 81.7623 156.314C77.3483 160.486 75.312 166.603 75.312 174.28H77.312ZM100.608 152.264H102.608V124.872H100.608H98.608V152.264H100.608ZM100.608 124.872L101.86 126.432L121.316 110.816L120.064 109.256L118.812 107.696L99.3561 123.312L100.608 124.872ZM120.064 109.256L118.528 110.536L122.368 115.144L123.904 113.864L125.44 112.584L121.6 107.976L120.064 109.256ZM123.904 113.864L122.655 112.302L118.815 115.374L120.064 116.936L121.313 118.498L125.153 115.426L123.904 113.864ZM120.064 116.936H118.064V203.464H120.064H122.064V116.936H120.064ZM120.064 203.464L118.8 201.914L99.3437 217.786L100.608 219.336L101.872 220.886L121.328 205.014L120.064 203.464ZM100.608 219.336L102.218 218.15L98.6341 213.286L97.024 214.472L95.4139 215.658L98.9979 220.522L100.608 219.336ZM97.024 214.472L98.2596 216.045L101.844 213.229L100.608 211.656L99.3724 210.083L95.7884 212.899L97.024 214.472ZM61.952 106.952H63.952C63.952 100.52 66.4493 94.2205 71.6738 88.0163L70.144 86.728L68.6142 85.4398C62.9161 92.2062 59.952 99.3889 59.952 106.952H61.952ZM70.144 86.728L71.6738 88.0163C76.832 81.8909 82.6197 79 89.088 79V77V75C81.2203 75 74.3787 78.5944 68.6142 85.4398L70.144 86.728ZM89.088 77V79C93.1924 79 99.2567 80.2791 107.4 82.9934L108.032 81.096L108.664 79.1986C100.423 76.4516 93.8583 75 89.088 75V77ZM108.032 81.096L107.4 82.9934C112.267 84.6159 116.015 85.8369 118.637 86.6535C119.946 87.0612 120.989 87.3728 121.757 87.5843C122.139 87.6895 122.472 87.7751 122.744 87.8359C122.949 87.8818 123.311 87.96 123.648 87.96V85.96V83.96C123.815 83.96 123.864 83.9876 123.616 83.9322C123.435 83.8917 123.173 83.8252 122.819 83.7278C122.115 83.5339 121.121 83.2375 119.827 82.8345C117.243 82.0298 113.525 80.8187 108.664 79.1986L108.032 81.096ZM123.648 85.96V87.96C128.573 87.96 133.791 85.5111 139.24 81.1168L137.984 79.56L136.729 78.0032C131.596 82.1422 127.256 83.96 123.648 83.96V85.96ZM137.984 79.56L136.479 80.877L140.063 84.973L141.568 83.656L143.073 82.339L139.489 78.243L137.984 79.56ZM141.568 83.656L140.332 82.0834C135.548 85.8427 131.937 88.7651 129.514 90.8415L130.816 92.36L132.118 93.8785C134.474 91.8589 138.031 88.9787 142.804 85.2286L141.568 83.656ZM130.816 92.36L129.58 90.7874C127.253 92.6164 125.756 93.8239 125.306 94.2738L126.72 95.688L128.134 97.1022C128.134 97.1024 128.136 97.1005 128.14 97.0961C128.145 97.0919 128.151 97.0859 128.159 97.0782C128.176 97.0626 128.199 97.042 128.228 97.0159C128.287 96.9633 128.365 96.8958 128.463 96.8119C128.661 96.6439 128.926 96.4248 129.261 96.1522C129.931 95.6076 130.86 94.8686 132.052 93.9326L130.816 92.36ZM126.72 95.688L125.534 94.0779C119.194 98.7491 113.897 100.856 109.568 100.856V102.856V104.856C115.138 104.856 121.275 102.184 127.906 97.2981L126.72 95.688ZM109.568 102.856V100.856C106.692 100.856 101.935 99.768 95.1247 97.3843L94.464 99.272L93.8033 101.16C100.646 103.555 105.959 104.856 109.568 104.856V102.856ZM94.464 99.272L95.1397 97.3896C88.506 95.0082 83.507 93.688 80.384 93.688V95.688V97.688C82.7223 97.688 87.11 98.757 93.7883 101.154L94.464 99.272ZM80.384 95.688V93.688C76.3957 93.688 73.0265 95.216 70.4246 98.2182L71.936 99.528L73.4474 100.838C75.2829 98.72 77.5456 97.688 80.384 97.688V95.688ZM71.936 99.528L70.4175 98.2264C68.0316 101.01 66.864 104.385 66.864 108.232H68.864H70.864C70.864 105.253 71.7444 102.825 73.4545 100.83L71.936 99.528ZM68.864 108.232H66.864C66.864 115.971 70.5839 122.65 77.6035 128.23L78.848 126.664L80.0925 125.098C73.8001 120.097 70.864 114.488 70.864 108.232H68.864ZM78.848 126.664L77.4773 125.208L73.1253 129.304L74.496 130.76L75.8667 132.216L80.2187 128.12L78.848 126.664ZM74.496 130.76L75.8649 129.302C67.7288 121.664 63.952 114.219 63.952 106.952H61.952H59.952C59.952 115.728 64.5378 124.155 73.1271 132.218L74.496 130.76ZM202.052 268.488H204.052C204.052 257.579 207.855 248.361 215.498 240.718L214.084 239.304L212.67 237.89C204.27 246.29 200.052 256.528 200.052 268.488H202.052ZM214.084 239.304L215.498 240.718C222.543 233.673 231.677 228.711 242.985 225.884L242.5 223.944L242.015 222.004C230.113 224.979 220.302 230.258 212.67 237.89L214.084 239.304ZM242.5 223.944H244.5V171.464H242.5H240.5V223.944H242.5ZM242.5 171.464L243.914 170.05C241.778 167.913 239.335 166.648 236.612 166.648V168.648V170.648C237.985 170.648 239.468 171.26 241.086 172.878L242.5 171.464ZM236.612 168.648V166.648C232.798 166.648 229.602 167.783 227.409 170.36C225.269 172.874 224.372 176.433 224.372 180.68H226.372H228.372C228.372 176.906 229.182 174.448 230.455 172.952C231.676 171.518 233.599 170.648 236.612 170.648V168.648ZM226.372 180.68H224.372C224.372 182.598 224.996 184.928 226.051 187.567L227.908 186.824L229.765 186.081C228.772 183.6 228.372 181.834 228.372 180.68H226.372ZM227.908 186.824L227.179 184.961L221.291 187.266L222.02 189.128L222.749 190.99L228.637 188.686L227.908 186.824ZM222.02 189.128L223.906 188.462C221.913 182.815 220.948 177.753 220.948 173.256H218.948H216.948C216.948 178.316 218.031 183.836 220.134 189.794L222.02 189.128ZM218.948 173.256H220.948C220.948 166.63 222.796 162.01 226.167 159.005C229.581 155.961 234.905 154.264 242.5 154.264V152.264V150.264C234.394 150.264 227.941 152.065 223.505 156.019C219.025 160.012 216.948 165.887 216.948 173.256H218.948ZM242.5 152.264H244.5V120.008H242.5H240.5V152.264H242.5ZM242.5 120.008H244.5C244.5 113.265 243.329 107.851 240.681 104.076C237.943 100.171 233.824 98.296 228.676 98.296V100.296V102.296C232.744 102.296 235.537 103.706 237.407 106.372C239.367 109.168 240.5 113.61 240.5 120.008H242.5ZM228.676 100.296V98.296C222.526 98.296 217.364 101.029 213.279 106.228L214.852 107.464L216.425 108.7C219.849 104.341 223.903 102.296 228.676 102.296V100.296ZM214.852 107.464L213.267 106.245C209.632 110.97 207.448 116.344 206.723 122.327L208.708 122.568L210.693 122.809C211.334 117.528 213.246 112.832 216.437 108.683L214.852 107.464ZM208.708 122.568L209.171 120.622L203.795 119.342L203.332 121.288L202.869 123.234L208.245 124.514L208.708 122.568ZM203.332 121.288L205.32 121.509C206.49 110.973 209.241 101.849 213.53 94.0961L211.78 93.128L210.03 92.1599C205.444 100.45 202.563 110.099 201.344 121.067L203.332 121.288ZM211.78 93.128L213.54 94.0779C219.134 83.7124 225.997 79 234.052 79V77V75C224.017 75 216.031 81.0396 210.02 92.1781L211.78 93.128ZM234.052 77V79C238.714 79 242.986 80.4649 246.922 83.4563L248.132 81.864L249.342 80.2717C244.745 76.7778 239.63 75 234.052 75V77ZM248.132 81.864L246.923 83.4569C255.437 89.9217 259.956 101.209 259.956 117.96H261.956H263.956C263.956 100.577 259.259 87.8009 249.341 80.2711L248.132 81.864ZM261.956 117.96L263.184 119.539L274.704 110.579L273.476 109L272.248 107.421L260.728 116.381L261.956 117.96ZM273.476 109H275.476V80.072H273.476H271.476V109H273.476ZM273.476 80.072V82.072H279.62V80.072V78.072H273.476V80.072ZM279.62 80.072H277.62V104.904H279.62H281.62V80.072H279.62ZM279.62 104.904L280.783 106.531L319.439 78.8827L318.276 77.256L317.113 75.6292L278.456 103.277L279.62 104.904ZM318.276 77.256L316.87 78.6788L337.862 99.4149L339.268 97.992L340.674 96.5691L319.682 75.8331L318.276 77.256ZM339.268 97.992L340.399 99.6415L349.359 93.4975L348.228 91.848L347.097 90.1986L338.137 96.3425L339.268 97.992ZM348.228 91.848L346.59 92.9949L350.174 98.1149L351.812 96.968L353.45 95.8211L349.866 90.7011L348.228 91.848ZM351.812 96.968L350.64 95.3473L334 107.379L335.172 109L336.344 110.621L352.984 98.5887L351.812 96.968ZM335.172 109L333.228 108.53L303.417 231.782L305.361 232.252L307.305 232.722L337.116 109.47L335.172 109ZM305.361 232.252L303.429 231.735L301.752 238.003L303.684 238.52L305.616 239.037L307.293 232.769L305.361 232.252ZM303.684 238.52C303.567 236.523 303.566 236.523 303.565 236.524C303.564 236.524 303.563 236.524 303.562 236.524C303.561 236.524 303.559 236.524 303.557 236.524C303.552 236.524 303.547 236.525 303.541 236.525C303.529 236.526 303.514 236.527 303.495 236.528C303.458 236.531 303.409 236.535 303.346 236.541C303.222 236.552 303.048 236.571 302.826 236.599C302.384 236.655 301.754 236.752 300.96 236.916C299.373 237.243 297.132 237.837 294.433 238.909C289.029 241.057 281.812 245.116 274.349 252.754L275.78 254.152L277.211 255.55C284.255 248.34 290.99 244.582 295.911 242.627C298.374 241.647 300.389 241.117 301.768 240.833C302.457 240.691 302.987 240.611 303.333 240.567C303.507 240.544 303.635 240.531 303.713 240.524C303.753 240.52 303.78 240.518 303.795 240.517C303.802 240.516 303.806 240.516 303.807 240.516C303.808 240.516 303.808 240.516 303.807 240.516C303.806 240.516 303.805 240.516 303.804 240.516C303.804 240.516 303.803 240.516 303.803 240.516C303.802 240.516 303.801 240.517 303.684 238.52ZM275.78 254.152L277.048 252.605C268.111 245.277 257.15 241.656 244.292 241.656V243.656V245.656C256.351 245.656 266.382 249.032 274.512 255.699L275.78 254.152ZM244.292 243.656V241.656C235.035 241.656 226.778 244.156 219.593 249.186L220.74 250.824L221.887 252.462C228.355 247.935 235.799 245.656 244.292 245.656V243.656ZM220.74 250.824L219.564 249.207C211.59 255.006 207.476 262.58 207.476 271.816H209.476H211.476C211.476 263.985 214.871 257.565 221.916 252.441L220.74 250.824ZM209.476 271.816H207.476C207.476 280.082 210.715 287.403 217.022 293.71L218.436 292.296L219.85 290.882C214.211 285.242 211.476 278.91 211.476 271.816H209.476ZM218.436 292.296L217.022 293.71C223.487 300.176 230.89 303.512 239.172 303.512V301.512V299.512C232.094 299.512 225.673 296.705 219.85 290.882L218.436 292.296ZM239.172 301.512H237.172V307.4H239.172H241.172V301.512H239.172ZM239.172 307.4V305.4C228.599 305.4 220.201 301.768 213.787 294.551L212.292 295.88L210.797 297.209C218.036 305.353 227.559 309.4 239.172 309.4V307.4ZM212.292 295.88L213.756 294.518C207.306 287.584 204.052 278.955 204.052 268.488H202.052H200.052C200.052 279.867 203.624 289.499 210.828 297.242L212.292 295.88ZM273.476 227.016H275.476V116.936H273.476H271.476V227.016H273.476ZM273.476 116.936L272.293 115.323L260.773 123.771L261.956 125.384L263.139 126.997L274.659 118.549L273.476 116.936ZM261.956 125.384H259.956V223.688H261.956H263.956V125.384H261.956ZM261.956 223.688L261.627 225.661C262.466 225.801 263.777 226.176 265.624 226.848L266.308 224.968L266.991 223.088C265.084 222.395 263.494 221.917 262.285 221.715L261.956 223.688ZM266.308 224.968L265.782 226.898C267.641 227.405 270.017 228.083 272.912 228.935L273.476 227.016L274.04 225.097C271.132 224.242 268.729 223.555 266.834 223.038L266.308 224.968ZM290.361 232.752L292.322 233.146L309.82 146.146L307.859 145.752L305.899 145.358L288.4 232.358L290.361 232.752ZM307.859 145.752L308.118 147.735C309.551 147.548 310.539 147.427 311.163 147.358C311.479 147.323 311.683 147.303 311.8 147.294C311.866 147.289 311.869 147.29 311.838 147.29C311.837 147.29 311.746 147.293 311.622 147.278C311.582 147.273 311.388 147.252 311.155 147.164C311.045 147.122 310.777 147.012 310.51 146.765C310.205 146.483 309.836 145.949 309.869 145.207C309.898 144.554 310.228 144.128 310.382 143.958C310.55 143.772 310.716 143.66 310.793 143.611C310.954 143.509 311.092 143.456 311.129 143.441C311.228 143.403 311.302 143.384 311.305 143.383C311.331 143.376 311.328 143.378 311.272 143.389C311.172 143.409 311.003 143.439 310.764 143.479C310.291 143.557 309.606 143.661 308.781 143.777C305.424 144.252 300.107 144.888 297.54 144.888V146.888V148.888C300.434 148.888 306.028 148.206 309.341 147.738C310.183 147.619 310.9 147.51 311.414 147.426C311.667 147.384 311.887 147.345 312.053 147.312C312.13 147.297 312.229 147.276 312.324 147.251C312.361 147.241 312.462 147.215 312.578 147.17C312.624 147.151 312.769 147.095 312.934 146.99C313.014 146.939 313.181 146.827 313.351 146.639C313.505 146.468 313.836 146.041 313.865 145.386C313.898 144.643 313.529 144.108 313.223 143.825C312.954 143.578 312.686 143.466 312.573 143.424C312.336 143.334 312.135 143.311 312.086 143.305C311.945 143.289 311.826 143.29 311.788 143.291C311.685 143.292 311.577 143.299 311.492 143.306C311.306 143.32 311.048 143.346 310.721 143.382C310.06 143.456 309.043 143.581 307.601 143.769L307.859 145.752ZM297.54 146.888V144.888C291.683 144.888 285.984 143.67 280.427 141.218L279.62 143.048L278.813 144.878C284.861 147.546 291.109 148.888 297.54 148.888V146.888ZM297.54 140.744V142.744C300.858 142.744 304.937 142.226 307.696 141.786C309.076 141.565 310.189 141.354 310.756 141.222C310.881 141.192 311.058 141.149 311.213 141.096C311.256 141.081 311.334 141.054 311.424 141.013C311.442 141.005 311.745 140.878 312.026 140.596C312.152 140.47 312.588 140.006 312.612 139.241C312.64 138.315 312.069 137.753 311.748 137.531C311.457 137.33 311.184 137.257 311.091 137.234C310.966 137.203 310.864 137.19 310.805 137.184C310.52 137.153 310.215 137.191 310.157 137.198C310.002 137.214 309.808 137.239 309.578 137.272L309.861 139.252L310.144 141.232C310.352 141.202 310.493 141.184 310.58 141.175C310.764 141.156 310.608 141.185 310.385 141.162C310.335 141.156 310.239 141.144 310.12 141.114C310.031 141.092 309.763 141.022 309.474 140.822C309.156 140.602 308.585 140.042 308.614 139.118C308.637 138.355 309.072 137.893 309.195 137.77C309.471 137.494 309.764 137.373 309.767 137.372C309.842 137.338 309.899 137.318 309.916 137.312C309.97 137.294 309.968 137.298 309.845 137.327C309.417 137.427 308.414 137.62 307.066 137.836C304.368 138.266 300.537 138.744 297.54 138.744V140.744ZM309.861 139.252L311.823 139.642L318.19 107.598L316.228 107.208L314.266 106.818L307.899 138.862L309.861 139.252ZM316.228 107.208L317.671 105.824L305.639 93.2795L304.196 94.664L302.753 96.0485L314.785 108.592L316.228 107.208ZM304.196 94.664L303.018 93.048L278.442 110.968L279.62 112.584L280.798 114.2L305.374 96.28L304.196 94.664ZM279.62 112.584H277.62V136.392H279.62H281.62V112.584H279.62ZM279.62 136.392L278.658 138.146C284.273 141.225 290.583 142.744 297.54 142.744V140.744V138.744C291.185 138.744 285.548 137.362 280.582 134.638L279.62 136.392ZM279.62 229.064L278.971 230.956L289.711 234.644L290.361 232.752L291.01 230.86L280.269 227.172L279.62 229.064ZM279.62 143.048H277.62V229.064H279.62H281.62V143.048H279.62Z" fill="#FFEDD4" mask="url(#path-2-outside-1_26_112)"/>
</svg>
